<svg version="1.1" id="Layer_1" xmlns="http://www.w3.org/2000/svg" xmlns:xlink="http://www.w3.org/1999/xlink" x="0px" y="0px"
	 width="100%" viewBox="0 0 1200 1200" enable-background="new 0 0 1200 1200" xml:space="preserve">
<path fill="#FEFDFD" opacity="1.000000" stroke="none" 
	d="
M1201.000000,275.000000 
	C1201.000000,584.000000 1201.000000,892.500000 1201.000000,1201.000000 
	C801.000000,1201.000000 401.000000,1201.000000 1.000000,1201.000000 
	C1.000000,801.000000 1.000000,401.000000 1.000000,1.000000 
	C401.000000,1.000000 801.000000,1.000000 1201.000000,1.000000 
	C1201.000000,92.166664 1201.000000,183.333328 1201.000000,275.000000 
M431.949371,1162.037476 
	C464.919037,1162.027832 497.888733,1162.011597 530.858398,1162.010010 
	C642.761719,1162.004639 754.664978,1161.989502 866.568298,1162.010986 
	C901.700989,1162.017822 936.833679,1162.128296 971.986633,1162.931396 
	C973.015076,1164.727905 974.043579,1166.524292 975.475220,1169.025024 
	C976.446167,1167.286499 976.829529,1166.900024 976.863525,1166.484985 
	C976.981201,1165.046997 976.977417,1163.599243 977.947571,1162.032227 
	C1041.547241,1162.032227 1105.146973,1162.032227 1168.968872,1162.032227 
	C1168.968872,787.693115 1168.968872,413.926910 1168.968872,40.173920 
	C797.283264,40.173920 426.236755,40.173920 54.922714,40.173920 
	C54.922714,414.166809 54.922714,787.830688 54.922714,1161.779297 
	C56.456852,1161.860718 57.746227,1161.988647 59.035622,1161.988892 
	C140.357056,1162.002075 221.678482,1161.986938 302.999908,1162.015991 
	C343.990326,1162.030640 384.980713,1162.124146 426.072540,1162.896240 
	C427.354004,1164.528809 428.635437,1166.161377 429.916840,1167.793945 
	C430.285217,1165.916138 430.653595,1164.038330 431.949371,1162.037476 
z"/>
<path fill="#A32714" opacity="1.000000" stroke="none" 
	d="
M971.966370,1162.191162 
	C936.833679,1162.128296 901.700989,1162.017822 866.568298,1162.010986 
	C754.664978,1161.989502 642.761719,1162.004639 530.858398,1162.010010 
	C497.888733,1162.011597 464.919037,1162.027832 431.070404,1162.016602 
	C428.784668,1162.057983 427.377899,1162.119995 425.971130,1162.182007 
	C384.980713,1162.124146 343.990326,1162.030640 302.999908,1162.015991 
	C221.678482,1161.986938 140.357056,1162.002075 59.035622,1161.988892 
	C57.746227,1161.988647 56.456852,1161.860718 54.922714,1161.779297 
	C54.922714,787.830688 54.922714,414.166809 54.922714,40.173920 
	C426.236755,40.173920 797.283264,40.173920 1168.968872,40.173920 
	C1168.968872,413.926910 1168.968872,787.693115 1168.968872,1162.032227 
	C1105.146973,1162.032227 1041.547241,1162.032227 977.067810,1162.013428 
	C974.780823,1162.060059 973.373596,1162.125610 971.966370,1162.191162 
M611.613647,446.716919 
	C612.191467,445.918884 612.848694,445.166260 613.335083,444.315918 
	C620.425232,431.921478 627.481873,419.507843 634.567383,407.110748 
	C650.119690,379.899841 665.674438,352.690338 681.247314,325.491241 
	C689.156189,311.677979 697.106445,297.888489 705.260864,283.428314 
	C711.529663,272.443451 717.668640,261.382050 724.092896,250.488846 
	C740.186401,223.200195 763.461792,205.652206 795.239502,202.109665 
	C837.671570,197.379395 870.273254,214.059433 891.891968,250.972626 
	C910.646179,282.994934 928.800354,315.368469 947.255554,347.566223 
	C965.874878,380.050385 984.538269,412.509247 1003.276794,445.582336 
	C1004.045593,446.748047 1004.814392,447.913727 1005.838440,449.760742 
	C1031.833374,495.230743 1057.826782,540.701660 1083.823853,586.170471 
	C1107.592407,627.741577 1131.364990,669.310425 1155.200439,711.484619 
	C1155.618408,712.095947 1156.036377,712.707214 1157.050537,714.190735 
	C1156.926880,712.369690 1156.875854,711.618958 1156.838867,709.947693 
	C1156.828857,684.677246 1156.818848,659.406860 1156.984741,633.492004 
	C1156.920288,633.278931 1156.855835,633.065796 1156.804932,631.934143 
	C1156.783203,595.004578 1156.761475,558.075012 1156.888672,520.488525 
	C1156.823364,520.273682 1156.758179,520.058838 1156.793823,518.931824 
	C1156.774292,505.668365 1156.754883,492.404907 1156.936890,478.515961 
	C1156.886108,478.302856 1156.835449,478.089722 1156.823364,476.955841 
	C1156.827271,422.482056 1156.837524,368.008301 1156.833618,313.534515 
	C1156.828369,238.403397 1156.812500,163.272263 1156.979370,87.497887 
	C1156.918701,87.283813 1156.858154,87.069733 1156.811401,85.936775 
	C1156.811401,74.987915 1156.811401,64.039062 1156.811401,52.462090 
	C1153.968140,52.462090 1151.514282,52.462128 1149.060547,52.462082 
	C1072.167236,52.460716 995.273987,52.432217 918.380676,52.475258 
	C896.585022,52.487457 874.789490,52.708385 852.417664,52.341862 
	C851.167114,52.421005 849.916626,52.500149 847.854309,52.506271 
	C820.878479,52.496811 793.902649,52.480637 766.926819,52.479057 
	C650.361450,52.472225 533.796143,52.453945 417.230774,52.474865 
	C380.931274,52.481380 344.631744,52.598164 307.435394,52.314789 
	C305.851776,52.396946 304.268158,52.479103 301.876221,52.502823 
	C223.744812,52.502823 145.613403,52.502823 67.063225,52.502823 
	C67.063225,54.607716 67.063316,56.237206 67.063210,57.866699 
	C67.058571,130.019455 67.051323,202.172195 67.049843,274.324951 
	C67.047554,386.314606 67.036011,498.304230 67.057114,610.293884 
	C67.063545,644.455994 67.164421,678.618042 67.052414,713.734009 
	C67.066353,746.182007 67.080292,778.630005 67.058426,812.004883 
	C67.058426,924.371948 67.058426,1036.739014 67.058426,1149.531738 
	C70.669914,1149.531738 73.651741,1149.532104 76.633568,1149.531738 
	C132.105774,1149.525024 187.578018,1149.547852 243.050186,1149.495850 
	C263.033844,1149.477173 283.017273,1149.278442 303.576172,1149.647827 
	C304.818817,1149.588501 306.061462,1149.529297 308.164276,1149.509521 
	C409.969757,1149.515259 511.775269,1149.522949 613.580750,1149.525879 
	C672.566467,1149.527710 731.552185,1149.551636 790.537903,1149.502930 
	C809.687256,1149.487061 828.836426,1149.271484 848.665894,1149.508057 
	C850.494080,1149.439209 852.322266,1149.370361 855.005676,1149.476318 
	C955.438049,1149.476318 1055.870483,1149.476318 1156.747437,1149.476318 
	C1156.747437,1121.701172 1156.747437,1094.419922 1156.881470,1066.480713 
	C1156.810669,1066.268311 1156.739990,1066.055908 1156.786377,1064.932983 
	C1156.769165,1051.668335 1156.751831,1038.403809 1156.921509,1024.511597 
	C1156.871094,1024.299316 1156.820557,1024.086914 1156.823853,1022.954712 
	C1156.820557,969.679199 1156.817383,916.403687 1157.022583,862.369324 
	C1156.933228,861.857544 1156.843750,861.345825 1156.813721,859.919617 
	C1156.821411,843.317749 1156.829102,826.715881 1157.065796,809.487549 
	C1156.816895,808.883118 1156.567871,808.278687 1156.318970,807.674255 
	C1155.860840,808.430664 1155.402710,809.187134 1154.542847,810.486511 
	C1134.958008,841.007507 1106.794922,855.953308 1070.769775,855.974182 
	C925.504639,856.058350 780.239441,856.014221 634.974304,855.987244 
	C598.659485,855.980469 562.344604,855.861023 525.846924,855.087219 
	C520.404663,853.298828 514.929260,851.604675 509.526215,849.704590 
	C492.239624,843.625427 478.158997,832.842407 467.377686,818.353821 
	C453.216003,799.322449 446.078522,777.896729 447.872314,753.709045 
	C448.978424,738.794067 453.212616,725.071594 460.504822,712.188965 
	C470.978485,693.686035 481.567230,675.248291 492.103729,656.780884 
	C503.300049,637.157043 514.479797,617.523560 525.690308,597.907776 
	C538.465271,575.554504 551.274353,553.220703 564.053833,530.869995 
	C575.843201,510.250977 587.672729,489.654602 599.358826,468.977142 
	C603.432434,461.769135 607.130493,454.348755 611.613647,446.716919 
z"/>
<path fill="#E6E7E6" opacity="1.000000" stroke="none" 
	d="
M426.021851,1162.539062 
	C427.377899,1162.119995 428.784668,1162.057983 430.606720,1162.078125 
	C430.653595,1164.038330 430.285217,1165.916138 429.916870,1167.793945 
	C428.635437,1166.161377 427.354004,1164.528809 426.021851,1162.539062 
z"/>
<path fill="#E6E7E6" opacity="1.000000" stroke="none" 
	d="
M971.976501,1162.561279 
	C973.373596,1162.125610 974.780823,1162.060059 976.604004,1162.074829 
	C976.977417,1163.599243 976.981201,1165.046997 976.863525,1166.484985 
	C976.829529,1166.900024 976.446167,1167.286499 975.475220,1169.025024 
	C974.043579,1166.524292 973.015076,1164.727905 971.976501,1162.561279 
z"/>
<path fill="#F9F9F9" opacity="1.000000" stroke="none" 
	d="
M1156.836914,810.114014 
	C1156.829102,826.715881 1156.821411,843.317749 1156.524902,860.447021 
	C1156.428833,861.692322 1156.621582,862.410217 1156.814209,863.128174 
	C1156.817383,916.403687 1156.820557,969.679199 1156.609009,1023.527344 
	C1156.332153,1024.232056 1156.182739,1024.412598 1156.224121,1024.487549 
	C1156.356079,1024.725952 1156.559082,1024.924927 1156.734619,1025.139160 
	C1156.751831,1038.403809 1156.769165,1051.668335 1156.541260,1065.511963 
	C1156.446655,1066.440308 1156.597046,1066.789429 1156.747437,1067.138672 
	C1156.747437,1094.419922 1156.747437,1121.701172 1156.747437,1149.476318 
	C1055.870483,1149.476318 955.438049,1149.476318 854.525635,1149.022949 
	C855.620483,1144.149170 857.416504,1139.789551 858.655029,1135.276978 
	C859.114563,1133.602783 858.266479,1131.569458 858.014648,1129.699951 
	C856.652283,1130.535400 855.011292,1131.116577 853.976013,1132.250610 
	C849.635315,1137.005127 849.449341,1143.318970 847.985718,1149.147217 
	C828.836426,1149.271484 809.687256,1149.487061 790.537903,1149.502930 
	C731.552185,1149.551636 672.566467,1149.527710 613.580750,1149.525879 
	C511.775269,1149.522949 409.969757,1149.515259 307.677368,1149.141113 
	C309.011902,1142.786011 310.833344,1136.799438 312.654755,1130.812866 
	C312.008698,1130.627441 311.362610,1130.441895 310.716553,1130.256470 
	C305.364685,1135.336548 303.840149,1142.098633 303.000824,1149.161865 
	C283.017273,1149.278442 263.033844,1149.477173 243.050186,1149.495850 
	C187.578018,1149.547852 132.105774,1149.525024 76.633568,1149.531738 
	C73.651741,1149.532104 70.669914,1149.531738 67.058426,1149.531738 
	C67.058426,1036.739014 67.058426,924.371948 67.434723,811.479248 
	C69.222145,812.200623 70.777557,813.319336 72.019760,814.716492 
	C77.741776,821.152222 82.594536,828.632690 89.191818,833.966248 
	C107.621613,848.865845 128.974747,856.175903 152.893814,856.049744 
	C190.513382,855.851379 228.134857,856.044250 265.755432,855.999268 
	C283.558990,855.978027 301.362335,855.789551 319.622375,855.705261 
	C364.738312,855.823181 409.397644,855.951843 454.057007,855.986694 
	C478.047882,856.005432 502.038849,855.863098 526.029785,855.793457 
	C562.344604,855.861023 598.659485,855.980469 634.974304,855.987244 
	C780.239441,856.014221 925.504639,856.058350 1070.769775,855.974182 
	C1106.794922,855.953308 1134.958008,841.007507 1155.061768,810.168152 
	C1155.999390,809.937866 1156.418213,810.025940 1156.836914,810.114014 
M467.009705,1021.370483 
	C467.178955,1023.613403 467.348206,1025.856323 467.544617,1028.459106 
	C468.915771,1029.115601 470.613342,1029.928467 472.247009,1030.710693 
	C475.861481,1025.814453 474.906616,1019.172852 470.255829,1015.746521 
	C470.975037,1014.698303 471.693146,1013.651733 472.491791,1012.487793 
	C466.921417,1012.020752 465.660706,1013.983948 467.009705,1021.370483 
M1019.531921,1021.899414 
	C1018.766052,1019.819336 1018.000183,1017.739197 1016.926392,1014.822754 
	C1016.974976,1014.737488 1017.635071,1013.578857 1018.822876,1011.493958 
	C1016.475891,1012.153442 1014.015869,1012.396912 1013.950500,1012.932800 
	C1013.339539,1017.936707 1013.139465,1022.990784 1012.828918,1027.896851 
	C1015.068298,1029.406128 1016.927917,1030.659546 1019.297302,1032.256470 
	C1019.297302,1028.643677 1019.297302,1025.601562 1019.531921,1021.899414 
M1065.197144,943.525269 
	C1066.423462,944.332153 1068.298462,946.090149 1068.759888,945.775513 
	C1070.442139,944.628052 1071.652344,942.788635 1072.994263,941.262512 
	C1073.886108,941.526489 1075.385132,942.027161 1076.924438,942.301086 
	C1077.029785,942.319824 1077.926880,940.122864 1077.623535,939.835938 
	C1075.835083,938.143921 1073.994873,936.000183 1071.792236,935.398254 
	C1069.679932,934.820984 1064.722046,940.821350 1065.197144,943.525269 
M529.231140,943.203186 
	C530.020508,942.915833 530.809875,942.628540 531.599243,942.341187 
	C530.823364,940.337646 530.512146,937.852356 529.109070,936.499207 
	C528.166260,935.589783 525.389832,935.694397 523.949463,936.399170 
	C521.868164,937.417542 520.254028,939.390747 518.265625,941.107666 
	C519.371460,942.905823 520.538452,944.803406 522.418091,947.859924 
	C524.296753,945.025635 525.672241,942.950439 527.134521,940.744324 
	C527.581665,941.231567 528.224976,941.932434 529.231140,943.203186 
M440.039368,870.518250 
	C441.214905,874.253113 442.390411,877.987976 443.640717,881.960449 
	C447.486298,877.576843 446.914398,870.926941 441.973755,863.287354 
	C441.219727,865.770630 440.626862,867.723145 440.039368,870.518250 
M989.876404,866.746948 
	C989.337952,865.822449 988.799561,864.897949 988.043152,863.599243 
	C983.812378,870.806519 987.492310,876.110779 990.588562,881.635132 
	C991.616028,878.991028 991.948730,876.334229 991.689636,873.736511 
	C991.479736,871.632324 990.558105,869.599121 989.876404,866.746948 
M626.057007,1017.469299 
	C622.895142,1020.758728 620.671997,1024.443604 620.317383,1029.526611 
	C625.605286,1027.606079 629.569031,1019.322937 627.952881,1014.239014 
	C627.381348,1015.308105 626.948792,1016.117310 626.057007,1017.469299 
M74.705460,1026.894653 
	C74.104614,1029.656860 75.748848,1030.888428 77.293648,1028.764771 
	C80.129387,1024.866089 81.989952,1020.258240 84.257034,1015.945984 
	C83.515244,1015.534485 82.773460,1015.122986 82.031670,1014.711426 
	C79.741570,1018.586243 77.451469,1022.461060 74.705460,1026.894653 
M467.107605,988.741943 
	C467.467255,987.603333 467.826874,986.464722 468.497284,984.342163 
	C466.526276,986.093689 465.456238,987.303589 464.147186,988.138794 
	C462.677307,989.076660 460.431610,989.299377 459.589661,990.550659 
	C458.994873,991.434631 460.175049,993.512939 460.579956,995.126221 
	C462.844727,994.182739 464.531342,993.841003 465.700745,992.873779 
	C466.567596,992.156860 466.762177,990.627075 467.107605,988.741943 
M1007.468872,994.504822 
	C1009.522278,993.694336 1011.575745,992.883911 1013.883789,991.972961 
	C1013.434875,990.164429 1012.977844,988.322876 1012.473999,986.292786 
	C1009.747253,988.810364 1001.699219,987.254456 1007.468872,994.504822 
M1133.160522,978.207825 
	C1131.714966,977.924011 1130.269409,977.640198 1128.695190,977.331177 
	C1127.895142,978.915222 1127.101929,980.485901 1125.608154,983.443909 
	C1128.942871,983.211670 1131.434692,983.459595 1133.643188,982.782532 
	C1136.717651,981.839844 1136.711914,980.077087 1133.160522,978.207825 
M97.987389,847.802979 
	C94.649658,850.785278 96.161278,854.123901 97.293915,857.575684 
	C98.842216,855.981873 99.793053,854.167480 100.925781,852.474731 
	C102.923775,849.488892 102.033058,847.932678 97.987389,847.802979 
M586.531067,978.010864 
	C585.303711,977.713257 584.076416,977.415588 581.806641,976.865112 
	C582.050842,979.482178 582.240051,981.509277 582.429199,983.536255 
	C584.819153,982.864197 587.209167,982.192139 589.599182,981.520081 
	C588.834839,980.372864 588.070496,979.225708 586.531067,978.010864 
M489.473450,956.800964 
	C489.255798,954.003723 489.038147,951.206482 488.790710,948.026306 
	C484.172852,949.746582 484.833008,952.977417 485.321838,955.745667 
	C485.451508,956.479797 487.669342,956.845215 489.473450,956.800964 
M331.989655,1146.771973 
	C331.598846,1143.776978 331.208038,1140.781860 330.817230,1137.786865 
	C330.292175,1137.644775 329.767151,1137.502808 329.242096,1137.360840 
	C328.505737,1139.330566 327.033234,1141.396606 327.273865,1143.238647 
	C327.455078,1144.625732 329.832306,1145.725952 331.989655,1146.771973 
M1032.097778,948.977783 
	C1031.764526,951.196533 1031.126709,953.438721 1031.294189,955.619019 
	C1031.340942,956.227539 1034.217651,957.451721 1035.011230,957.003662 
	C1036.912598,955.929871 1034.980957,949.523621 1032.097778,948.977783 
M1081.847168,1128.277100 
	C1083.689575,1122.976318 1082.917603,1120.019897 1080.276855,1119.713989 
	C1079.565063,1122.724487 1078.870850,1125.660156 1078.000977,1129.339355 
	C1078.838989,1129.229614 1080.136475,1129.059937 1081.847168,1128.277100 
M553.817139,1027.179077 
	C554.164612,1025.925293 554.903992,1024.608276 554.715942,1023.440674 
	C554.598877,1022.713318 552.902771,1021.556091 552.225159,1021.739075 
	C550.581360,1022.182861 549.398560,1029.065186 550.680115,1031.223999 
	C551.677551,1030.022339 552.576233,1028.939453 553.817139,1027.179077 
M200.033356,1143.445190 
	C201.692413,1141.903076 203.566284,1140.520508 204.893600,1138.732300 
	C205.355743,1138.109619 204.467178,1136.484375 204.195511,1135.317017 
	C202.854752,1136.427612 201.110489,1137.303467 200.288498,1138.715942 
	C199.491943,1140.084839 199.643433,1142.005371 200.033356,1143.445190 
M536.876465,1125.965576 
	C536.593811,1123.752197 538.203552,1120.738159 534.659851,1119.607544 
	C533.846436,1123.143555 533.141296,1126.208984 532.436096,1129.274536 
	C532.724426,1129.590698 533.012756,1129.906982 533.301086,1130.223267 
	C534.403687,1129.058838 535.506226,1127.894287 536.876465,1125.965576 
M1098.123901,1029.634155 
	C1099.051270,1027.313965 1099.978760,1024.993774 1101.055786,1022.299316 
	C1097.126343,1022.807190 1094.020020,1028.116943 1095.617676,1030.342651 
	C1095.843994,1030.657837 1097.000244,1030.305420 1098.123901,1029.634155 
M744.112244,1107.893066 
	C744.783386,1108.769653 745.454468,1109.646118 746.125610,1110.522705 
	C746.600708,1110.391968 747.075745,1110.261353 747.550842,1110.130615 
	C747.212524,1108.150146 747.283508,1105.961060 746.412231,1104.252441 
	C745.653931,1102.765381 743.831421,1101.820923 742.479126,1100.636719 
	C742.254578,1100.947998 742.030090,1101.259399 741.805603,1101.570679 
	C742.543945,1103.437256 743.282288,1105.303833 744.112244,1107.893066 
M747.205994,1141.627319 
	C750.941345,1138.364380 750.941345,1138.364380 749.531250,1134.214722 
	C747.279846,1137.499390 745.464050,1140.148438 743.648254,1142.797485 
	C744.028198,1143.113403 744.408142,1143.429321 744.788086,1143.745239 
	C745.481873,1143.252808 746.175720,1142.760376 747.205994,1141.627319 
M201.227524,1105.501587 
	C199.994400,1103.931885 198.761276,1102.362061 197.528152,1100.792358 
	C197.148056,1101.114868 196.767960,1101.437378 196.387878,1101.759888 
	C197.743423,1104.771362 199.098969,1107.782837 200.454514,1110.794189 
	C200.940720,1110.641846 201.426910,1110.489380 201.913116,1110.336914 
	C201.796204,1108.950317 201.679306,1107.563721 201.227524,1105.501587 
M181.846497,961.668579 
	C181.006668,960.462646 180.166824,959.256714 179.326996,958.050842 
	C178.963730,958.233154 178.600479,958.415466 178.237213,958.597839 
	C178.805130,961.347412 179.373047,964.096985 179.940964,966.846558 
	C180.460022,966.906738 180.979080,966.966919 181.498154,967.027100 
	C181.708923,965.458984 181.919708,963.890930 181.846497,961.668579 
M1059.133057,1028.781738 
	C1062.519897,1028.479858 1064.269897,1026.972412 1063.549438,1023.645691 
	C1063.003540,1023.303650 1062.457520,1022.961609 1061.911499,1022.619568 
	C1060.945068,1024.434814 1059.978638,1026.250000 1059.133057,1028.781738 
M876.755493,1143.673340 
	C875.783752,1142.666382 874.812012,1141.659424 873.840271,1140.652466 
	C873.472229,1140.890747 873.104187,1141.129150 872.736206,1141.367432 
	C873.497009,1142.961060 873.864014,1145.061768 875.110657,1146.030029 
	C877.002075,1147.498779 878.175659,1146.699463 876.755493,1143.673340 
M1014.479675,985.585754 
	C1014.479675,985.585754 1014.415039,985.477722 1014.479675,985.585754 
z"/>
<path fill="#F9F9F9" opacity="1.000000" stroke="none" 
	d="
M1156.808716,634.136414 
	C1156.818848,659.406860 1156.828857,684.677246 1156.550659,710.422607 
	C1155.886963,710.891785 1155.511353,710.886047 1155.135864,710.880249 
	C1131.364990,669.310425 1107.592407,627.741577 1083.823853,586.170471 
	C1057.826782,540.701660 1031.833374,495.230743 1006.106995,449.370544 
	C1008.695129,448.018341 1011.014709,447.056366 1013.899536,445.859955 
	C1011.753479,444.629059 1009.873413,443.550720 1008.318420,442.658813 
	C1006.409363,443.521271 1004.795898,444.250214 1003.182373,444.979156 
	C984.538269,412.509247 965.874878,380.050385 947.255554,347.566223 
	C928.800354,315.368469 910.646179,282.994934 891.891968,250.972626 
	C870.273254,214.059433 837.671570,197.379395 795.239502,202.109665 
	C763.461792,205.652206 740.186401,223.200195 724.092896,250.488846 
	C717.668640,261.382050 711.529663,272.443451 704.788696,283.781067 
	C703.527832,283.098145 702.615967,282.133575 701.969666,281.015564 
	C696.302490,271.212646 690.686157,261.380432 685.048218,251.560593 
	C669.666321,224.769455 647.329346,207.464569 616.491272,202.516418 
	C588.254822,197.985733 562.693359,204.470230 540.241272,222.616684 
	C527.783020,232.685822 519.244385,245.658447 511.641144,259.446289 
	C510.423218,261.654907 508.583435,263.520569 507.073212,265.199371 
	C504.641083,260.352539 502.302734,255.769989 499.670166,251.363205 
	C484.929993,226.689346 464.575928,209.461517 435.834808,203.348770 
	C411.202698,198.109955 388.061890,202.156723 365.830933,214.056458 
	C364.613678,211.902496 363.732574,209.959793 362.640625,207.552322 
	C359.797791,210.909958 359.144775,213.909088 361.101501,217.544739 
	C353.241211,225.350479 344.369141,232.017731 338.231659,240.633057 
	C329.011963,253.574890 321.602753,267.820648 313.615173,281.622772 
	C301.780884,302.071686 290.083771,322.600281 278.382568,343.125916 
	C252.095718,389.236908 225.870316,435.382904 199.567123,481.484558 
	C174.832382,524.837219 150.039215,568.156494 125.252815,611.479614 
	C114.848427,629.665100 104.395248,647.822632 93.613342,665.954956 
	C92.405869,665.181702 91.613708,663.964722 90.675583,663.839233 
	C89.625824,663.698853 87.475983,664.537109 87.471306,664.967468 
	C87.431351,668.645813 87.769882,672.328308 87.886169,676.339600 
	C86.805885,678.753967 85.834625,680.838379 84.609154,683.143738 
	C78.643982,693.169861 72.933014,702.975037 67.222046,712.780151 
	C67.164421,678.618042 67.063545,644.455994 67.057114,610.293884 
	C67.036011,498.304230 67.047554,386.314606 67.049843,274.324951 
	C67.051323,202.172195 67.058571,130.019455 67.063210,57.866699 
	C67.063316,56.237206 67.063225,54.607716 67.063225,52.502823 
	C145.613403,52.502823 223.744812,52.502823 302.392761,52.889023 
	C303.685059,56.022751 299.761902,60.256660 304.512085,61.802773 
	C305.985565,58.278027 307.158905,55.471245 308.332245,52.664467 
	C344.631744,52.598164 380.931274,52.481380 417.230774,52.474865 
	C533.796143,52.453945 650.361450,52.472225 766.926819,52.479057 
	C793.902649,52.480637 820.878479,52.496811 848.371033,52.909710 
	C848.719055,55.093868 848.268188,56.908646 848.477661,58.643703 
	C848.624695,59.861340 849.671753,60.970333 850.566467,62.575733 
	C851.599365,58.430389 852.296631,55.631989 852.993896,52.833591 
	C874.789490,52.708385 896.585022,52.487457 918.380676,52.475258 
	C995.273987,52.432217 1072.167236,52.460716 1149.060547,52.462082 
	C1151.514282,52.462128 1153.968140,52.462090 1156.811401,52.462090 
	C1156.811401,64.039062 1156.811401,74.987915 1156.579590,86.443726 
	C1156.120605,87.131584 1155.893311,87.312500 1155.666016,87.493423 
	C1156.044434,87.709328 1156.422852,87.925240 1156.801270,88.141144 
	C1156.812500,163.272263 1156.828369,238.403397 1156.833618,313.534515 
	C1156.837524,368.008301 1156.827271,422.482056 1156.629028,477.533417 
	C1156.379395,478.239929 1156.244141,478.406769 1156.283936,478.490509 
	C1156.395752,478.725830 1156.579834,478.926910 1156.735352,479.141449 
	C1156.754883,492.404907 1156.774292,505.668365 1156.556152,519.509827 
	C1156.458984,520.440369 1156.599365,520.792908 1156.739746,521.145447 
	C1156.761475,558.075012 1156.783203,595.004578 1156.582275,632.439087 
	C1156.150879,633.126160 1155.941895,633.308228 1155.733032,633.490356 
	C1156.091553,633.705688 1156.450195,633.921082 1156.808716,634.136414 
M633.981384,123.643463 
	C633.421631,127.945663 632.982971,132.268112 632.267822,136.544312 
	C631.570740,140.712479 635.273071,144.212830 639.884888,143.166122 
	C639.884888,138.066696 639.653809,132.882538 639.946106,127.728081 
	C640.276672,121.899612 638.139404,118.139763 633.012329,117.493446 
	C633.342773,119.369133 633.645203,121.085564 633.981384,123.643463 
M93.886993,125.107239 
	C93.261002,123.247818 92.892540,121.236137 91.915749,119.584137 
	C91.295883,118.535782 89.771133,118.022469 88.652176,117.269211 
	C88.390755,118.545044 88.023697,119.809639 87.886497,121.098694 
	C87.338295,126.249435 86.660683,131.400146 86.464417,136.567337 
	C86.393173,138.442963 87.068253,140.770187 88.262520,142.144012 
	C89.321869,143.362656 91.572594,143.545654 93.985489,144.441193 
	C93.985489,137.401733 93.985489,131.692749 93.886993,125.107239 
M531.979309,88.353516 
	C529.824585,87.875633 527.669861,87.397751 525.515198,86.919868 
	C525.340149,87.361343 525.165161,87.802826 524.990112,88.244301 
	C525.971802,89.773109 526.953430,91.301918 527.247009,91.759094 
	C530.375977,92.105568 532.795593,91.726868 534.464172,92.672897 
	C540.862793,96.300598 542.751587,95.287811 543.195190,87.382149 
	C540.672485,87.047432 538.143311,86.711861 535.832092,86.405205 
	C534.851990,87.114983 533.748718,87.913933 531.979309,88.353516 
M954.317566,283.363525 
	C956.096802,285.107391 957.625305,289.243042 960.518372,285.694122 
	C962.131226,283.715576 963.322754,280.085052 959.895630,277.316956 
	C958.149597,275.906647 957.172424,273.544434 956.240967,272.186035 
	C954.202209,273.744354 952.065186,275.377808 950.834229,276.318695 
	C952.315613,279.020966 953.310486,280.835785 954.317566,283.363525 
M1075.980957,87.154045 
	C1074.360718,87.301506 1072.740479,87.448967 1071.120361,87.596428 
	C1071.026245,88.034813 1070.932129,88.473198 1070.837891,88.911591 
	C1072.212646,89.921829 1073.449219,91.371460 1074.989136,91.855537 
	C1078.801025,93.053734 1082.751709,93.810143 1086.914429,94.808289 
	C1087.783203,92.750389 1088.838745,90.249886 1090.359497,86.647392 
	C1086.892090,87.189842 1084.526611,87.725258 1082.136353,87.879570 
	C1080.347168,87.995064 1078.526367,87.619453 1075.980957,87.154045 
M1066.311523,399.471283 
	C1071.120728,401.555481 1071.537964,397.626770 1072.520508,394.287689 
	C1073.799561,395.705017 1074.739502,396.746490 1075.741089,397.856323 
	C1079.842896,395.194977 1077.193115,392.876373 1075.599243,390.873199 
	C1073.917114,388.759064 1071.728882,388.601196 1069.571289,390.504700 
	C1067.874634,392.001465 1066.122803,393.435608 1064.208618,395.055695 
	C1064.680542,396.215637 1065.232056,397.571564 1066.311523,399.471283 
M986.412354,321.285980 
	C987.124207,326.137848 987.836060,330.989716 988.669800,336.671814 
	C993.187439,332.042816 992.548706,324.435608 987.943604,317.875153 
	C987.466431,318.894775 987.085083,319.709595 986.412354,321.285980 
M1013.585083,166.823792 
	C1015.281372,165.178787 1016.977600,163.533783 1018.983948,161.588104 
	C1017.187378,160.532059 1015.599854,159.484512 1013.913269,158.633224 
	C1011.111877,157.219223 1009.616821,158.384033 1010.052124,161.289749 
	C1010.719177,165.742767 1011.810547,170.132187 1012.721863,174.548599 
	C1013.251221,174.470779 1013.780579,174.392975 1014.309875,174.315170 
	C1013.976257,172.042770 1013.642578,169.770370 1013.585083,166.823792 
M303.349884,222.867477 
	C302.784119,226.453079 302.218384,230.038666 301.589417,234.024872 
	C304.716522,232.372314 308.285400,230.486328 312.111938,228.464157 
	C309.840729,225.848679 307.980865,223.596893 305.946747,221.515335 
	C305.714630,221.277802 304.506531,221.993988 303.349884,222.867477 
M75.374237,479.702515 
	C75.161385,480.815430 74.948532,481.928314 74.735680,483.041229 
	C75.600334,483.050781 76.620453,483.363556 77.301254,483.014526 
	C79.586136,481.843079 83.666306,472.190063 82.025162,468.728729 
	C79.947952,472.185150 77.870743,475.641541 75.374237,479.702515 
M470.580872,160.059906 
	C469.063293,159.153000 467.545715,158.246094 464.399902,156.366165 
	C464.860474,161.214920 465.206390,164.856567 465.516571,168.122147 
	C467.859863,166.540161 470.062653,165.313980 471.866882,163.654434 
	C472.327271,163.230972 471.524414,161.434204 470.580872,160.059906 
M975.115723,78.003944 
	C975.997070,78.342857 976.878418,78.681770 977.759766,79.020676 
	C977.950623,78.345924 978.486389,77.530243 978.277405,77.018860 
	C976.696960,73.150719 974.970398,69.342262 973.289429,65.515182 
	C972.577393,65.793106 971.865417,66.071037 971.153442,66.348969 
	C972.419250,69.999886 973.685120,73.650810 975.115723,78.003944 
M98.648735,301.474945 
	C94.240051,304.163391 96.344276,307.898438 96.632126,311.710968 
	C102.049408,307.819672 102.940788,303.995758 98.648735,301.474945 
M427.942383,75.419319 
	C428.522919,76.598923 428.964264,77.885490 429.749603,78.907738 
	C430.083710,79.342606 431.190094,79.433136 431.843201,79.270195 
	C432.175690,79.187233 432.613556,78.058029 432.438232,77.637627 
	C430.842804,73.812393 429.122650,70.039185 427.438965,66.250763 
	C426.829498,66.472076 426.220032,66.693398 425.610565,66.914711 
	C426.229492,69.542549 426.848389,72.170380 427.942383,75.419319 
M1135.135498,433.300507 
	C1133.003906,432.580597 1130.872314,431.860687 1128.662231,431.114288 
	C1128.173828,432.289642 1127.887573,433.047424 1127.546753,433.779816 
	C1127.155396,434.621002 1126.715942,435.439819 1126.299194,436.264740 
	C1130.829224,438.633087 1134.302856,437.651337 1135.135498,433.300507 
M910.010437,211.592865 
	C909.240845,210.064163 908.471191,208.535446 907.701599,207.006744 
	C906.965454,207.251511 906.229309,207.496277 905.493164,207.741043 
	C905.834595,211.063522 906.175964,214.386017 906.517395,217.708496 
	C907.259705,217.729370 908.002075,217.750244 908.744385,217.771103 
	C909.167480,215.985641 909.590515,214.200165 910.010437,211.592865 
M1131.259155,134.795441 
	C1132.229736,134.001602 1133.200317,133.207764 1134.385498,132.238434 
	C1131.749023,130.595612 1129.876099,129.428528 1127.283569,127.813080 
	C1126.998291,130.527222 1126.773804,132.662384 1126.549316,134.797546 
	C1127.878052,134.857330 1129.206787,134.917114 1131.259155,134.795441 
M1032.038696,411.932953 
	C1035.055542,412.982239 1035.989014,411.206635 1035.703491,408.789276 
	C1035.437134,406.534943 1034.514648,404.358124 1033.671631,401.416656 
	C1030.355713,404.656982 1030.585449,407.868866 1032.038696,411.932953 
M210.160767,301.947784 
	C210.033554,307.121735 210.033554,307.121735 212.396561,307.312378 
	C213.187119,302.928162 213.944031,298.730530 214.700943,294.532898 
	C214.234802,294.430115 213.768661,294.327362 213.302521,294.224579 
	C212.360977,296.552002 211.419434,298.879456 210.160767,301.947784 
M702.687378,172.802994 
	C701.254272,169.373322 698.919617,169.446167 695.058044,171.287125 
	C697.701904,173.511978 699.773376,175.255157 702.549988,177.591705 
	C702.714661,175.424179 702.786377,174.480438 702.687378,172.802994 
M671.649841,96.317863 
	C671.254211,94.345268 670.858521,92.372681 670.462830,90.400085 
	C670.021179,90.310463 669.579590,90.220840 669.137939,90.131218 
	C668.445984,91.934959 667.487610,93.693359 667.169800,95.560760 
	C667.000427,96.556328 667.938477,97.740341 668.376648,98.839310 
	C669.385254,98.238937 670.393860,97.638573 671.649841,96.317863 
M200.475708,101.976318 
	C199.380905,100.126427 198.286102,98.276543 197.191299,96.426651 
	C196.701508,96.576324 196.211716,96.725990 195.721909,96.875664 
	C196.207413,99.307434 196.371826,101.879074 197.339569,104.100769 
	C197.716171,104.965340 199.904144,105.040878 201.267029,105.475830 
	C201.175568,104.488121 201.084106,103.500412 200.475708,101.976318 
M744.672180,105.047935 
	C745.675598,104.868332 746.679077,104.688728 748.061218,104.441338 
	C746.239624,101.647301 744.747620,99.358780 742.962036,96.619949 
	C740.930420,100.278366 740.815125,102.857491 744.672180,105.047935 
M156.938904,173.511993 
	C155.918564,169.640976 153.525436,169.361084 149.566559,171.739456 
	C150.877625,173.473663 152.591324,174.803726 154.510056,175.689789 
	C155.014359,175.922668 156.153503,174.780823 156.938904,173.511993 
M536.033386,130.207199 
	C533.953369,130.073578 531.873352,129.939957 529.793335,129.806335 
	C529.521301,130.174026 529.249329,130.541718 528.977295,130.909409 
	C531.099792,132.773071 533.222290,134.636734 535.814392,136.912659 
	C536.145081,133.927322 536.330017,132.257584 536.033386,130.207199 
M583.926270,129.590347 
	C582.764404,131.315247 581.602600,133.040146 580.440796,134.765045 
	C580.904846,135.140289 581.368958,135.515533 581.833069,135.890778 
	C583.833008,135.092880 585.832886,134.294983 588.615173,133.184952 
	C586.724854,131.723221 585.612244,130.862915 583.926270,129.590347 
M1095.720093,484.602142 
	C1100.035156,482.857971 1101.104004,479.338928 1097.726074,475.689697 
	C1096.830322,478.698639 1096.036987,481.363434 1095.720093,484.602142 
M125.717133,97.261749 
	C125.540245,94.976555 125.363350,92.691353 125.186462,90.406158 
	C124.717300,90.287575 124.248138,90.168991 123.778976,90.050407 
	C123.160606,92.155609 122.184937,94.232567 122.015785,96.373268 
	C121.811813,98.954628 123.154839,99.691750 125.717133,97.261749 
M977.620117,219.322144 
	C976.883911,220.950424 976.147766,222.578720 975.411621,224.207001 
	C977.143311,224.433685 978.875000,224.660370 980.606689,224.887054 
	C980.812561,224.439255 981.018433,223.991440 981.224304,223.543640 
	C980.270813,222.135040 979.317322,220.726440 977.620117,219.322144 
M785.839722,138.976440 
	C785.839722,137.130798 785.839722,135.285156 785.839722,133.439529 
	C785.333252,133.362228 784.826721,133.284927 784.320251,133.207642 
	C783.316101,135.578247 782.311951,137.948837 780.779358,141.567169 
	C783.068542,140.663223 784.287598,140.181824 785.839722,138.976440 
M978.513611,236.751144 
	C976.351501,234.843033 974.189331,232.934921 971.485962,230.549164 
	C971.458008,235.572067 973.917786,237.597244 978.513611,236.751144 
M178.129883,413.638367 
	C178.797775,416.014679 179.465683,418.390991 180.133575,420.767273 
	C180.562469,420.817841 180.991379,420.868378 181.420273,420.918915 
	C181.517227,419.146301 182.067993,417.227112 181.558716,415.650238 
	C181.191879,414.514465 179.412521,413.834900 178.129883,413.638367 
M1062.159058,481.489960 
	C1062.764526,480.235260 1063.369995,478.980591 1063.975586,477.725922 
	C1063.187256,477.373322 1062.398804,477.020721 1061.610474,476.668121 
	C1060.608521,478.726624 1059.606445,480.785126 1058.604370,482.843628 
	C1059.112793,483.125427 1059.621094,483.407227 1060.129395,483.688995 
	C1060.630615,483.124237 1061.131714,482.559448 1062.159058,481.489960 
M1082.296631,134.216629 
	C1082.208496,132.876068 1082.120239,131.535522 1081.973267,129.299698 
	C1080.305176,130.743271 1079.099121,131.787094 1077.892944,132.830933 
	C1077.987549,133.345840 1078.082031,133.860733 1078.176636,134.375641 
	C1079.660767,134.489700 1081.144775,134.603760 1082.296631,134.216629 
M1076.991821,131.267487 
	C1076.756958,130.746567 1076.522095,130.225662 1076.287354,129.704712 
	C1075.945801,130.190155 1075.604370,130.675583 1075.262939,131.161057 
	C1075.808350,131.388336 1076.353638,131.615631 1076.991821,131.267487 
M467.660950,171.608261 
	C467.967560,171.375961 468.274139,171.143661 468.580719,170.911362 
	C468.393951,170.717682 468.207184,170.524002 468.020447,170.330292 
	C467.780853,170.627762 467.541260,170.925217 467.660950,171.608261 
z"/>
<path fill="#CE9086" opacity="1.000000" stroke="none" 
	d="
M93.964256,665.992859 
	C104.395248,647.822632 114.848427,629.665100 125.252815,611.479614 
	C150.039215,568.156494 174.832382,524.837219 199.567123,481.484558 
	C225.870316,435.382904 252.095718,389.236908 278.382568,343.125916 
	C290.083771,322.600281 301.780884,302.071686 313.615173,281.622772 
	C321.602753,267.820648 329.011963,253.574890 338.231659,240.633057 
	C344.369141,232.017731 353.241211,225.350479 361.400146,217.435455 
	C363.329651,216.128952 364.748383,215.198334 366.167084,214.267715 
	C388.061890,202.156723 411.202698,198.109955 435.834808,203.348770 
	C464.575928,209.461517 484.929993,226.689346 499.670166,251.363205 
	C502.302734,255.769989 504.641083,260.352539 507.121338,265.594971 
	C507.167023,266.597504 507.206696,266.859039 507.121399,267.449463 
	C500.157501,279.778473 493.324463,291.781891 486.478546,303.777954 
	C466.600433,338.610504 446.716003,373.439392 426.836273,408.270966 
	C407.699799,441.800262 388.570374,475.333588 369.430084,508.860687 
	C349.630524,543.542664 329.835480,578.227295 310.012604,612.895996 
	C292.253021,643.956055 274.627747,675.094727 256.622314,706.011841 
	C243.648270,728.289673 236.614624,751.761108 242.092056,777.506836 
	C250.605927,817.524780 274.752594,843.045044 314.558289,853.440002 
	C316.178345,853.863037 317.633698,854.916931 319.165771,855.676880 
	C301.362335,855.789551 283.558990,855.978027 265.755432,855.999268 
	C228.134857,856.044250 190.513382,855.851379 152.893814,856.049744 
	C128.974747,856.175903 107.621613,848.865845 89.191818,833.966248 
	C82.594536,828.632690 77.741776,821.152222 72.019760,814.716492 
	C70.777557,813.319336 69.222145,812.200623 67.452621,811.015808 
	C67.080292,778.630005 67.066353,746.182007 67.137238,713.257080 
	C72.933014,702.975037 78.643982,693.169861 84.897659,683.356201 
	C87.148643,686.757874 88.464630,690.737488 93.212311,689.682739 
	C93.494637,686.423767 94.128380,683.816284 93.842102,681.313965 
	C93.408272,677.521851 96.099510,673.140991 92.081879,669.682007 
	C92.798729,668.253784 93.381500,667.123352 93.964256,665.992859 
M308.113007,602.266235 
	C308.196869,602.315857 308.280701,602.365540 308.364532,602.415222 
	C308.239410,602.279663 308.114288,602.144043 308.005981,601.225525 
	C309.369995,597.739868 310.988312,594.325806 311.997681,590.740295 
	C312.557007,588.753479 312.097992,586.479980 312.097992,584.335693 
	C311.461853,584.258728 310.825745,584.181763 310.189606,584.104797 
	C304.682892,590.048706 302.685028,597.510010 302.178955,605.451599 
	C302.118378,606.402405 304.287628,607.495361 304.704102,607.871948 
	C306.139618,605.316040 307.073792,603.652771 308.113007,602.266235 
M199.753708,635.761902 
	C216.204453,645.207214 232.655197,654.652527 249.105957,664.097839 
	C249.483688,663.580078 249.861435,663.062378 250.239182,662.544617 
	C249.095947,661.512634 248.088028,660.250732 246.787872,659.485291 
	C237.181366,653.829712 227.521484,648.264648 217.868988,642.687378 
	C206.054321,635.860657 194.290161,628.943420 182.387451,622.273560 
	C175.687775,618.519409 169.591766,621.820068 169.222610,629.129333 
	C169.167648,630.217773 169.470428,631.324280 169.607697,632.422363 
	C169.125961,632.188171 168.644226,631.953918 168.162491,631.719666 
	C166.173264,634.712524 163.233353,637.474243 162.435242,640.756714 
	C161.435593,644.867920 165.261032,647.079102 168.496109,648.950806 
	C189.811050,661.283325 211.122421,673.622070 232.477341,685.885010 
	C233.595825,686.527344 235.100754,686.496643 236.425781,686.779297 
	C236.592590,686.313904 236.759384,685.848511 236.926193,685.383118 
	C235.476562,684.415894 234.074585,683.366333 232.569534,682.494751 
	C223.066986,676.991882 213.530899,671.546997 204.026352,666.047668 
	C192.217178,659.214783 180.383453,652.422302 168.653503,645.455566 
	C164.434616,642.949890 164.006638,638.503845 167.931412,636.361816 
	C169.600479,635.450867 172.805634,635.944946 174.647751,636.981873 
	C190.449783,645.876526 206.092026,655.054810 221.798264,664.120239 
	C228.607742,668.050598 235.455444,671.914673 242.285782,675.808899 
	C242.690826,675.266235 243.095856,674.723572 243.500885,674.180847 
	C241.939377,672.947449 240.500351,671.503540 238.797699,670.512695 
	C218.094681,658.464722 197.345245,646.496460 176.629822,634.469666 
	C173.695053,632.765869 170.472794,630.935120 172.868164,626.719299 
	C175.194016,622.625793 178.482269,623.389282 181.862274,625.354492 
	C187.615677,628.699768 193.380447,632.025574 199.753708,635.761902 
M142.613693,785.894043 
	C140.305695,784.564392 137.996399,783.237000 135.689941,781.904724 
	C124.446404,775.410156 113.167992,768.974731 101.977386,762.390137 
	C97.211975,759.586182 96.669434,754.544006 101.074333,752.742798 
	C103.030045,751.943054 106.277817,752.825562 108.342148,753.996704 
	C129.481552,765.990295 150.493042,778.209229 171.562317,790.326843 
	C172.772629,791.022888 174.174362,791.386047 175.487000,791.904114 
	C175.769638,791.395081 176.052261,790.886108 176.334885,790.377075 
	C174.579956,789.140930 172.907593,787.762207 171.057419,786.690430 
	C150.745178,774.924377 130.386322,763.238708 110.091888,751.442078 
	C106.815971,749.537842 103.513000,747.529114 99.895363,749.776001 
	C96.077637,752.147278 94.350586,755.823608 95.658226,760.361816 
	C86.708893,764.944824 85.450790,771.773621 92.965767,776.211487 
	C114.609421,788.992981 136.438293,801.461243 158.235580,813.980896 
	C159.392563,814.645447 160.928619,814.649963 162.288177,814.961792 
	C162.449280,814.533081 162.610367,814.104431 162.771469,813.675781 
	C161.789642,812.955261 160.864502,812.137085 159.817215,811.529358 
	C148.873093,805.178162 137.907272,798.864319 126.951714,792.532776 
	C116.285095,786.368164 105.594704,780.244019 94.973091,774.002808 
	C90.393990,771.312073 89.835167,766.653015 94.036964,764.694824 
	C95.861237,763.844604 99.022621,764.318176 100.905266,765.380493 
	C117.723663,774.870117 134.384735,784.638306 151.108673,794.295837 
	C156.789078,797.576050 162.516663,800.774536 168.458374,804.144043 
	C168.764221,802.998596 169.097549,802.201721 168.979477,802.128052 
	C160.430008,796.791870 151.844666,791.513123 142.613693,785.894043 
M137.456833,734.060669 
	C132.701202,731.321960 127.978882,728.523132 123.181107,725.860413 
	C117.724884,722.832092 113.662651,723.760010 110.763275,728.540833 
	C107.565933,733.813049 108.288116,737.923706 113.812569,741.164917 
	C134.177063,753.112976 154.665817,764.849548 175.125061,776.635681 
	C179.374802,779.083801 183.046295,778.311462 186.142685,774.463379 
	C190.227783,769.386475 189.440674,764.325745 183.375885,760.740967 
	C168.345947,751.857300 153.174347,743.213196 137.456833,734.060669 
M175.882416,743.584290 
	C182.644501,747.494812 189.406586,751.405334 196.168671,755.315857 
	C196.588287,754.712708 197.007904,754.109558 197.427521,753.506348 
	C195.958786,752.366699 194.598068,751.041138 193.005020,750.115417 
	C172.139542,737.991333 151.249634,725.909241 130.342880,713.856506 
	C126.860748,711.849060 124.886177,709.425171 127.245461,705.370667 
	C129.461349,701.562439 132.038879,701.049377 136.510971,703.553101 
	C140.723175,705.911438 144.926056,708.287537 149.102158,710.709106 
	C166.237656,720.645020 183.348969,730.622803 200.517517,740.501160 
	C201.647064,741.151062 203.180847,741.098328 205.478043,741.566223 
	C204.537979,739.839355 204.457611,739.429871 204.219833,739.292236 
	C181.752380,726.281067 159.312241,713.221741 136.764526,700.350891 
	C131.624710,697.416870 127.399353,698.988037 124.650795,704.101501 
	C121.996628,709.039368 123.174629,713.091492 128.557022,716.228577 
	C144.088120,725.280579 159.687393,734.215576 175.882416,743.584290 
M178.760818,686.751526 
	C182.388321,688.789185 185.840698,691.322693 189.705734,692.687866 
	C192.224518,693.577515 195.765945,693.628052 198.079376,692.489868 
	C200.612076,691.243713 202.179245,691.368469 204.338806,692.664734 
	C210.187515,696.175293 216.085236,699.609497 222.053787,702.910889 
	C223.290695,703.595032 224.917801,703.573853 226.365082,703.877747 
	C226.510620,703.394165 226.656158,702.910645 226.801712,702.427063 
	C225.437744,701.588379 224.090790,700.720398 222.706879,699.915955 
	C216.809586,696.487976 210.865570,693.137939 205.028519,689.610657 
	C203.913239,688.936707 202.294907,687.418335 202.453522,686.582703 
	C203.560410,680.751099 199.947784,678.022339 195.764938,675.597351 
	C183.384628,668.419800 170.988724,661.269043 158.572205,654.154480 
	C157.583649,653.588074 156.389893,653.379822 155.291489,653.005127 
	C155.000702,653.511841 154.709900,654.018494 154.419113,654.525208 
	C156.277267,655.820740 158.056000,657.252502 160.006577,658.389526 
	C171.795151,665.260986 183.618805,672.072388 195.440216,678.887390 
	C199.007294,680.943787 201.318604,683.422119 198.677887,687.729309 
	C196.162521,691.832031 193.032761,691.478882 189.322647,689.307434 
	C176.972168,682.079224 164.552689,674.968567 152.130310,667.864075 
	C150.713043,667.053528 149.110291,666.567322 147.593536,665.930664 
	C147.276138,666.524658 146.958755,667.118591 146.641357,667.712524 
	C156.708038,674.607727 167.724319,680.012939 178.760818,686.751526 
M189.735275,712.772461 
	C197.557602,717.229309 205.379929,721.686096 213.202271,726.142883 
	C213.581955,725.532837 213.961639,724.922791 214.341324,724.312683 
	C207.336456,718.503174 198.881699,714.809082 191.119919,710.127991 
	C183.013779,705.239319 174.754669,700.604004 166.558914,695.864075 
	C158.410065,691.151245 150.256836,686.446167 142.331085,681.867981 
	C143.323486,679.110718 144.126663,676.879211 144.929855,674.647705 
	C144.302383,674.365784 143.674911,674.083923 143.047440,673.802063 
	C140.079117,678.944702 137.110779,684.087402 134.142456,689.230042 
	C134.653351,689.599670 135.164261,689.969238 135.675171,690.338867 
	C136.554153,689.396912 137.652527,688.578796 138.268143,687.488159 
	C139.715714,684.923767 141.190445,684.549011 143.865829,686.125305 
	C158.890564,694.977295 174.026566,703.640564 189.735275,712.772461 
M244.211670,641.287781 
	C225.435043,630.494873 206.658432,619.701965 187.175415,608.503052 
	C188.142960,613.153320 252.024200,650.580627 257.496216,649.316650 
	C253.273712,646.771484 249.051193,644.226318 244.211670,641.287781 
M409.170624,283.119659 
	C410.704163,284.332855 412.237732,285.546021 413.771301,286.759186 
	C414.457184,284.495850 416.226532,281.848114 415.590057,280.053894 
	C414.469543,276.895233 411.879211,274.257935 409.357574,270.611694 
	C409.357574,273.357422 409.357574,275.043579 409.357574,276.859741 
	C407.804871,276.859741 406.517120,276.859741 405.116669,276.859741 
	C406.596954,278.937866 407.816956,280.650604 409.170624,283.119659 
M446.502594,329.024780 
	C445.341644,325.373535 444.180725,321.722290 442.834229,317.487457 
	C436.785339,324.474121 442.282440,329.839325 443.595612,335.538422 
	C444.029114,335.625916 444.462646,335.713409 444.896149,335.800903 
	C445.531097,333.786072 446.166016,331.771271 446.502594,329.024780 
M211.800446,844.265564 
	C209.018539,850.411133 209.287903,852.111145 213.004761,853.436584 
	C212.904907,851.255676 212.464340,848.931519 212.796234,846.723511 
	C213.096725,844.724487 214.240021,842.852112 215.011688,840.923889 
	C214.417145,840.681519 213.822617,840.439148 213.228073,840.196838 
	C212.805573,841.298645 212.383057,842.400513 211.800446,844.265564 
M154.278946,716.035156 
	C152.950653,716.160400 151.622360,716.285645 150.294067,716.410889 
	C150.190369,716.816833 150.086655,717.222778 149.982941,717.628784 
	C151.910782,719.206360 153.838638,720.783936 155.766479,722.361511 
	C156.304535,721.926453 156.842590,721.491455 157.380646,721.056396 
	C156.600082,719.445923 155.819519,717.835510 154.278946,716.035156 
M125.100677,639.664917 
	C125.238785,638.613342 125.376892,637.561768 125.615967,635.741394 
	C121.136665,638.323853 121.581734,641.362366 122.624222,644.558655 
	C123.205620,644.723877 123.787018,644.889160 124.368416,645.054382 
	C124.657021,643.500061 124.945633,641.945801 125.100677,639.664917 
z"/>
<path fill="#AE4131" opacity="1.000000" stroke="none" 
	d="
M319.622375,855.705261 
	C317.633698,854.916931 316.178345,853.863037 314.558289,853.440002 
	C274.752594,843.045044 250.605927,817.524780 242.092056,777.506836 
	C236.614624,751.761108 243.648270,728.289673 256.622314,706.011841 
	C274.627747,675.094727 292.253021,643.956055 310.012604,612.895996 
	C329.835480,578.227295 349.630524,543.542664 369.430084,508.860687 
	C388.570374,475.333588 407.699799,441.800262 426.836273,408.270966 
	C446.716003,373.439392 466.600433,338.610504 486.478546,303.777954 
	C493.324463,291.781891 500.157501,279.778473 507.449890,267.463928 
	C508.913177,268.386719 510.119873,269.511566 510.900726,270.879547 
	C515.839966,279.532837 520.632080,288.270142 525.571289,296.923431 
	C538.407593,319.412201 551.279114,341.880920 564.166748,364.340332 
	C575.154297,383.488434 586.238403,402.581390 597.169189,421.761749 
	C601.922119,430.101654 606.398193,438.599335 611.000000,447.025391 
	C607.130493,454.348755 603.432434,461.769135 599.358826,468.977142 
	C587.672729,489.654602 575.843201,510.250977 564.053833,530.869995 
	C551.274353,553.220703 538.465271,575.554504 525.690308,597.907776 
	C514.479797,617.523560 503.300049,637.157043 492.103729,656.780884 
	C481.567230,675.248291 470.978485,693.686035 460.504822,712.188965 
	C453.212616,725.071594 448.978424,738.794067 447.872314,753.709045 
	C446.078522,777.896729 453.216003,799.322449 467.377686,818.353821 
	C478.158997,832.842407 492.239624,843.625427 509.526215,849.704590 
	C514.929260,851.604675 520.404663,853.298828 525.938354,855.440308 
	C502.038849,855.863098 478.047882,856.005432 454.057007,855.986694 
	C409.397644,855.951843 364.738312,855.823181 319.622375,855.705261 
z"/>
<path fill="#B95C4E" opacity="1.000000" stroke="none" 
	d="
M611.306824,446.871155 
	C606.398193,438.599335 601.922119,430.101654 597.169189,421.761749 
	C586.238403,402.581390 575.154297,383.488434 564.166748,364.340332 
	C551.279114,341.880920 538.407593,319.412201 525.571289,296.923431 
	C520.632080,288.270142 515.839966,279.532837 510.900726,270.879547 
	C510.119873,269.511566 508.913177,268.386719 507.574890,267.135010 
	C507.206696,266.859039 507.167023,266.597504 507.079254,265.940399 
	C508.583435,263.520569 510.423218,261.654907 511.641144,259.446289 
	C519.244385,245.658447 527.783020,232.685822 540.241272,222.616684 
	C562.693359,204.470230 588.254822,197.985733 616.491272,202.516418 
	C647.329346,207.464569 669.666321,224.769455 685.048218,251.560593 
	C690.686157,261.380432 696.302490,271.212646 701.969666,281.015564 
	C702.615967,282.133575 703.527832,283.098145 704.677246,284.111053 
	C697.106445,297.888489 689.156189,311.677979 681.247314,325.491241 
	C665.674438,352.690338 650.119690,379.899841 634.567383,407.110748 
	C627.481873,419.507843 620.425232,431.921478 613.335083,444.315918 
	C612.848694,445.166260 612.191467,445.918884 611.306824,446.871155 
z"/>
<path fill="#C7C6C5" opacity="1.000000" stroke="none" 
	d="
M848.325806,1149.327637 
	C849.449341,1143.318970 849.635315,1137.005127 853.976013,1132.250610 
	C855.011292,1131.116577 856.652283,1130.535400 858.014648,1129.699951 
	C858.266479,1131.569458 859.114563,1133.602783 858.655029,1135.276978 
	C857.416504,1139.789551 855.620483,1144.149170 854.098022,1148.935547 
	C852.322266,1149.370361 850.494080,1149.439209 848.325806,1149.327637 
z"/>
<path fill="#CC968D" opacity="1.000000" stroke="none" 
	d="
M303.288513,1149.404785 
	C303.840149,1142.098633 305.364685,1135.336548 310.716553,1130.256470 
	C311.362610,1130.441895 312.008698,1130.627441 312.654755,1130.812866 
	C310.833344,1136.799438 309.011902,1142.786011 307.247284,1149.121338 
	C306.061462,1149.529297 304.818817,1149.588501 303.288513,1149.404785 
z"/>
<path fill="#CC968D" opacity="1.000000" stroke="none" 
	d="
M307.883820,52.489624 
	C307.158905,55.471245 305.985565,58.278027 304.512085,61.802773 
	C299.761902,60.256660 303.685059,56.022751 302.796936,52.918243 
	C304.268158,52.479103 305.851776,52.396946 307.883820,52.489624 
z"/>
<path fill="#E0E0DF" opacity="1.000000" stroke="none" 
	d="
M1003.229614,445.280762 
	C1004.795898,444.250214 1006.409363,443.521271 1008.318420,442.658813 
	C1009.873413,443.550720 1011.753479,444.629059 1013.899536,445.859955 
	C1011.014709,447.056366 1008.695129,448.018341 1005.979370,449.029907 
	C1004.814392,447.913727 1004.045593,446.748047 1003.229614,445.280762 
z"/>
<path fill="#CD9289" opacity="1.000000" stroke="none" 
	d="
M852.705811,52.587727 
	C852.296631,55.631989 851.599365,58.430389 850.566467,62.575733 
	C849.671753,60.970333 848.624695,59.861340 848.477661,58.643703 
	C848.268188,56.908646 848.719055,55.093868 848.776917,52.946220 
	C849.916626,52.500149 851.167114,52.421005 852.705811,52.587727 
z"/>
<path fill="#CC968D" opacity="1.000000" stroke="none" 
	d="
M1156.951416,809.800781 
	C1156.418213,810.025940 1155.999390,809.937866 1155.262695,809.896729 
	C1155.402710,809.187134 1155.860840,808.430664 1156.318970,807.674255 
	C1156.567871,808.278687 1156.816895,808.883118 1156.951416,809.800781 
z"/>
<path fill="#CC968D" opacity="1.000000" stroke="none" 
	d="
M1156.918457,862.748779 
	C1156.621582,862.410217 1156.428833,861.692322 1156.495239,860.904175 
	C1156.843750,861.345825 1156.933228,861.857544 1156.918457,862.748779 
z"/>
<path fill="#CD9289" opacity="1.000000" stroke="none" 
	d="
M1155.168213,711.182434 
	C1155.511353,710.886047 1155.886963,710.891785 1156.543701,710.882874 
	C1156.875854,711.618958 1156.926880,712.369690 1157.050537,714.190735 
	C1156.036377,712.707214 1155.618408,712.095947 1155.168213,711.182434 
z"/>
<path fill="#CD9289" opacity="1.000000" stroke="none" 
	d="
M1156.890381,87.819519 
	C1156.422852,87.925240 1156.044434,87.709328 1155.666016,87.493423 
	C1155.893311,87.312500 1156.120605,87.131584 1156.572754,86.903168 
	C1156.858154,87.069733 1156.918701,87.283813 1156.890381,87.819519 
z"/>
<path fill="#CD9289" opacity="1.000000" stroke="none" 
	d="
M1156.896729,633.814209 
	C1156.450195,633.921082 1156.091553,633.705688 1155.733032,633.490356 
	C1155.941895,633.308228 1156.150879,633.126160 1156.575439,632.898315 
	C1156.855835,633.065796 1156.920288,633.278931 1156.896729,633.814209 
z"/>
<path fill="#CC968D" opacity="1.000000" stroke="none" 
	d="
M1156.814453,1066.809692 
	C1156.597046,1066.789429 1156.446655,1066.440308 1156.482910,1065.967285 
	C1156.739990,1066.055908 1156.810669,1066.268311 1156.814453,1066.809692 
z"/>
<path fill="#CC968D" opacity="1.000000" stroke="none" 
	d="
M1156.828125,1024.825439 
	C1156.559082,1024.924927 1156.356079,1024.725952 1156.224121,1024.487549 
	C1156.182739,1024.412598 1156.332153,1024.232056 1156.582031,1023.987244 
	C1156.820557,1024.086914 1156.871094,1024.299316 1156.828125,1024.825439 
z"/>
<path fill="#CD9289" opacity="1.000000" stroke="none" 
	d="
M1156.836182,478.828705 
	C1156.579834,478.926910 1156.395752,478.725830 1156.283936,478.490509 
	C1156.244141,478.406769 1156.379395,478.239929 1156.609863,477.993805 
	C1156.835449,478.089722 1156.886108,478.302856 1156.836182,478.828705 
z"/>
<path fill="#CD9289" opacity="1.000000" stroke="none" 
	d="
M1156.814209,520.817017 
	C1156.599365,520.792908 1156.458984,520.440369 1156.505615,519.965942 
	C1156.758179,520.058838 1156.823364,520.273682 1156.814209,520.817017 
z"/>
<path fill="#ECECEC" opacity="1.000000" stroke="none" 
	d="
M467.004761,1020.968201 
	C465.660706,1013.983948 466.921417,1012.020752 472.491791,1012.487793 
	C471.693146,1013.651733 470.975037,1014.698303 470.255829,1015.746521 
	C474.906616,1019.172852 475.861481,1025.814453 472.247009,1030.710693 
	C470.613342,1029.928467 468.915771,1029.115601 467.544617,1028.459106 
	C467.348206,1025.856323 467.178955,1023.613403 467.004761,1020.968201 
z"/>
<path fill="#ECECEC" opacity="1.000000" stroke="none" 
	d="
M1019.414612,1022.229370 
	C1019.297302,1025.601562 1019.297302,1028.643677 1019.297302,1032.256470 
	C1016.927917,1030.659546 1015.068298,1029.406128 1012.828918,1027.896851 
	C1013.139465,1022.990784 1013.339539,1017.936707 1013.950500,1012.932800 
	C1014.015869,1012.396912 1016.475891,1012.153442 1018.822876,1011.493958 
	C1017.635071,1013.578857 1016.974976,1014.737488 1016.926392,1014.822754 
	C1018.000183,1017.739197 1018.766052,1019.819336 1019.414612,1022.229370 
z"/>
<path fill="#B2B2B2" opacity="1.000000" stroke="none" 
	d="
M1065.076660,943.169495 
	C1064.722046,940.821350 1069.679932,934.820984 1071.792236,935.398254 
	C1073.994873,936.000183 1075.835083,938.143921 1077.623535,939.835938 
	C1077.926880,940.122864 1077.029785,942.319824 1076.924438,942.301086 
	C1075.385132,942.027161 1073.886108,941.526489 1072.994263,941.262512 
	C1071.652344,942.788635 1070.442139,944.628052 1068.759888,945.775513 
	C1068.298462,946.090149 1066.423462,944.332153 1065.076660,943.169495 
z"/>
<path fill="#B2B2B2" opacity="1.000000" stroke="none" 
	d="
M529.049683,942.918213 
	C528.224976,941.932434 527.581665,941.231567 527.134521,940.744324 
	C525.672241,942.950439 524.296753,945.025635 522.418091,947.859924 
	C520.538452,944.803406 519.371460,942.905823 518.265625,941.107666 
	C520.254028,939.390747 521.868164,937.417542 523.949463,936.399170 
	C525.389832,935.694397 528.166260,935.589783 529.109070,936.499207 
	C530.512146,937.852356 530.823364,940.337646 531.599243,942.341187 
	C530.809875,942.628540 530.020508,942.915833 529.049683,942.918213 
z"/>
<path fill="#B2B2B2" opacity="1.000000" stroke="none" 
	d="
M440.036682,870.096924 
	C440.626862,867.723145 441.219727,865.770630 441.973755,863.287354 
	C446.914398,870.926941 447.486298,877.576843 443.640717,881.960449 
	C442.390411,877.987976 441.214905,874.253113 440.036682,870.096924 
z"/>
<path fill="#B2B2B2" opacity="1.000000" stroke="none" 
	d="
M989.914307,867.140686 
	C990.558105,869.599121 991.479736,871.632324 991.689636,873.736511 
	C991.948730,876.334229 991.616028,878.991028 990.588562,881.635132 
	C987.492310,876.110779 983.812378,870.806519 988.043152,863.599243 
	C988.799561,864.897949 989.337952,865.822449 989.914307,867.140686 
z"/>
<path fill="#C7C6C5" opacity="1.000000" stroke="none" 
	d="
M626.286621,1017.197876 
	C626.948792,1016.117310 627.381348,1015.308105 627.952881,1014.239014 
	C629.569031,1019.322937 625.605286,1027.606079 620.317383,1029.526611 
	C620.671997,1024.443604 622.895142,1020.758728 626.286621,1017.197876 
z"/>
<path fill="#C7C6C5" opacity="1.000000" stroke="none" 
	d="
M74.933411,1026.615234 
	C77.451469,1022.461060 79.741570,1018.586243 82.031670,1014.711426 
	C82.773460,1015.122986 83.515244,1015.534485 84.257034,1015.945984 
	C81.989952,1020.258240 80.129387,1024.866089 77.293648,1028.764771 
	C75.748848,1030.888428 74.104614,1029.656860 74.933411,1026.615234 
z"/>
<path fill="#E6E7E6" opacity="1.000000" stroke="none" 
	d="
M467.181915,989.100708 
	C466.762177,990.627075 466.567596,992.156860 465.700745,992.873779 
	C464.531342,993.841003 462.844727,994.182739 460.579956,995.126221 
	C460.175049,993.512939 458.994873,991.434631 459.589661,990.550659 
	C460.431610,989.299377 462.677307,989.076660 464.147186,988.138794 
	C465.456238,987.303589 466.526276,986.093689 468.497284,984.342163 
	C467.826874,986.464722 467.467255,987.603333 467.181915,989.100708 
z"/>
<path fill="#E6E7E6" opacity="1.000000" stroke="none" 
	d="
M1007.111816,994.544739 
	C1001.699219,987.254456 1009.747253,988.810364 1012.473999,986.292786 
	C1012.977844,988.322876 1013.434875,990.164429 1013.883789,991.972961 
	C1011.575745,992.883911 1009.522278,993.694336 1007.111816,994.544739 
z"/>
<path fill="#D0D0D0" opacity="1.000000" stroke="none" 
	d="
M1133.515137,978.344116 
	C1136.711914,980.077087 1136.717651,981.839844 1133.643188,982.782532 
	C1131.434692,983.459595 1128.942871,983.211670 1125.608154,983.443909 
	C1127.101929,980.485901 1127.895142,978.915222 1128.695190,977.331177 
	C1130.269409,977.640198 1131.714966,977.924011 1133.515137,978.344116 
z"/>
<path fill="#B2B2B2" opacity="1.000000" stroke="none" 
	d="
M98.315788,847.628113 
	C102.033058,847.932678 102.923775,849.488892 100.925781,852.474731 
	C99.793053,854.167480 98.842216,855.981873 97.293915,857.575684 
	C96.161278,854.123901 94.649658,850.785278 98.315788,847.628113 
z"/>
<path fill="#D0D0D0" opacity="1.000000" stroke="none" 
	d="
M586.918579,978.044678 
	C588.070496,979.225708 588.834839,980.372864 589.599182,981.520020 
	C587.209167,982.192139 584.819153,982.864197 582.429199,983.536255 
	C582.240051,981.509277 582.050842,979.482178 581.806641,976.865112 
	C584.076416,977.415588 585.303711,977.713257 586.918579,978.044678 
z"/>
<path fill="#D9D9D9" opacity="1.000000" stroke="none" 
	d="
M489.200928,957.090454 
	C487.669342,956.845215 485.451508,956.479797 485.321838,955.745667 
	C484.833008,952.977417 484.172852,949.746582 488.790710,948.026306 
	C489.038147,951.206482 489.255798,954.003723 489.200928,957.090454 
z"/>
<path fill="#E6E7E6" opacity="1.000000" stroke="none" 
	d="
M331.610840,1146.862915 
	C329.832306,1145.725952 327.455078,1144.625732 327.273865,1143.238647 
	C327.033234,1141.396606 328.505737,1139.330566 329.242096,1137.360840 
	C329.767151,1137.502808 330.292175,1137.644775 330.817230,1137.786865 
	C331.208038,1140.781860 331.598846,1143.776978 331.610840,1146.862915 
z"/>
<path fill="#D9D9D9" opacity="1.000000" stroke="none" 
	d="
M1032.347168,948.708252 
	C1034.980957,949.523621 1036.912598,955.929871 1035.011230,957.003662 
	C1034.217651,957.451721 1031.340942,956.227539 1031.294189,955.619019 
	C1031.126709,953.438721 1031.764526,951.196533 1032.347168,948.708252 
z"/>
<path fill="#E6E7E6" opacity="1.000000" stroke="none" 
	d="
M1081.640625,1128.583618 
	C1080.136475,1129.059937 1078.838989,1129.229614 1078.000977,1129.339355 
	C1078.870850,1125.660156 1079.565063,1122.724487 1080.276855,1119.713989 
	C1082.917603,1120.019897 1083.689575,1122.976318 1081.640625,1128.583618 
z"/>
<path fill="#E6E7E6" opacity="1.000000" stroke="none" 
	d="
M553.645996,1027.517822 
	C552.576233,1028.939453 551.677551,1030.022339 550.680115,1031.223999 
	C549.398560,1029.065186 550.581360,1022.182861 552.225159,1021.739075 
	C552.902771,1021.556091 554.598877,1022.713318 554.715942,1023.440674 
	C554.903992,1024.608276 554.164612,1025.925293 553.645996,1027.517822 
z"/>
<path fill="#E6E7E6" opacity="1.000000" stroke="none" 
	d="
M199.705933,1143.564453 
	C199.643433,1142.005371 199.491943,1140.084839 200.288498,1138.715942 
	C201.110489,1137.303467 202.854752,1136.427612 204.195511,1135.317017 
	C204.467178,1136.484375 205.355743,1138.109619 204.893600,1138.732300 
	C203.566284,1140.520508 201.692413,1141.903076 199.705933,1143.564453 
z"/>
<path fill="#E6E7E6" opacity="1.000000" stroke="none" 
	d="
M536.742676,1126.347656 
	C535.506226,1127.894287 534.403687,1129.058838 533.301086,1130.223267 
	C533.012756,1129.906982 532.724426,1129.590698 532.436096,1129.274536 
	C533.141296,1126.208984 533.846436,1123.143555 534.659851,1119.607544 
	C538.203552,1120.738159 536.593811,1123.752197 536.742676,1126.347656 
z"/>
<path fill="#E6E7E6" opacity="1.000000" stroke="none" 
	d="
M1097.925049,1029.948120 
	C1097.000244,1030.305420 1095.843994,1030.657837 1095.617676,1030.342651 
	C1094.020020,1028.116943 1097.126343,1022.807190 1101.055786,1022.299316 
	C1099.978760,1024.993774 1099.051270,1027.313965 1097.925049,1029.948120 
z"/>
<path fill="#E6E7E6" opacity="1.000000" stroke="none" 
	d="
M744.066406,1107.531738 
	C743.282288,1105.303833 742.543945,1103.437256 741.805603,1101.570679 
	C742.030090,1101.259399 742.254578,1100.947998 742.479126,1100.636719 
	C743.831421,1101.820923 745.653931,1102.765381 746.412231,1104.252441 
	C747.283508,1105.961060 747.212524,1108.150146 747.550842,1110.130615 
	C747.075745,1110.261353 746.600708,1110.391968 746.125610,1110.522705 
	C745.454468,1109.646118 744.783386,1108.769653 744.066406,1107.531738 
z"/>
<path fill="#E0E0DF" opacity="1.000000" stroke="none" 
	d="
M747.037720,1141.947632 
	C746.175720,1142.760376 745.481873,1143.252808 744.788086,1143.745239 
	C744.408142,1143.429321 744.028198,1143.113403 743.648254,1142.797485 
	C745.464050,1140.148438 747.279846,1137.499390 749.531250,1134.214722 
	C750.941345,1138.364380 750.941345,1138.364380 747.037720,1141.947632 
z"/>
<path fill="#E0E0DF" opacity="1.000000" stroke="none" 
	d="
M201.394958,1105.839355 
	C201.679306,1107.563721 201.796204,1108.950317 201.913116,1110.336914 
	C201.426910,1110.489380 200.940720,1110.641846 200.454514,1110.794189 
	C199.098969,1107.782837 197.743423,1104.771362 196.387878,1101.759888 
	C196.767960,1101.437378 197.148056,1101.114868 197.528152,1100.792358 
	C198.761276,1102.362061 199.994400,1103.931885 201.394958,1105.839355 
z"/>
<path fill="#D9D9D9" opacity="1.000000" stroke="none" 
	d="
M181.988495,961.995728 
	C181.919708,963.890930 181.708923,965.458984 181.498154,967.027100 
	C180.979080,966.966919 180.460022,966.906738 179.940964,966.846558 
	C179.373047,964.096985 178.805130,961.347412 178.237213,958.597839 
	C178.600479,958.415466 178.963730,958.233154 179.326996,958.050842 
	C180.166824,959.256714 181.006668,960.462646 181.988495,961.995728 
z"/>
<path fill="#E0E0DF" opacity="1.000000" stroke="none" 
	d="
M1059.072754,1028.423462 
	C1059.978638,1026.250000 1060.945068,1024.434814 1061.911499,1022.619568 
	C1062.457520,1022.961609 1063.003540,1023.303650 1063.549438,1023.645691 
	C1064.269897,1026.972412 1062.519897,1028.479858 1059.072754,1028.423462 
z"/>
<path fill="#D6ABA4" opacity="1.000000" stroke="none" 
	d="
M876.993469,1143.918213 
	C878.175659,1146.699463 877.002075,1147.498779 875.110657,1146.030029 
	C873.864014,1145.061768 873.497009,1142.961060 872.736206,1141.367432 
	C873.104187,1141.129150 873.472229,1140.890747 873.840271,1140.652466 
	C874.812012,1141.659424 875.783752,1142.666382 876.993469,1143.918213 
z"/>
<path fill="#E6E7E6" opacity="1.000000" stroke="none" 
	d="
M1014.447388,985.531738 
	C1014.415039,985.477722 1014.479675,985.585754 1014.447388,985.531738 
z"/>
<path fill="#E0E0DF" opacity="1.000000" stroke="none" 
	d="
M633.964478,123.222733 
	C633.645203,121.085564 633.342773,119.369133 633.012329,117.493446 
	C638.139404,118.139763 640.276672,121.899612 639.946106,127.728081 
	C639.653809,132.882538 639.884888,138.066696 639.884888,143.166122 
	C635.273071,144.212830 631.570740,140.712479 632.267822,136.544312 
	C632.982971,132.268112 633.421631,127.945663 633.964478,123.222733 
z"/>
<path fill="#E0E0DF" opacity="1.000000" stroke="none" 
	d="
M93.936241,125.545509 
	C93.985489,131.692749 93.985489,137.401733 93.985489,144.441193 
	C91.572594,143.545654 89.321869,143.362656 88.262520,142.144012 
	C87.068253,140.770187 86.393173,138.442963 86.464417,136.567337 
	C86.660683,131.400146 87.338295,126.249435 87.886497,121.098694 
	C88.023697,119.809639 88.390755,118.545044 88.652176,117.269211 
	C89.771133,118.022469 91.295883,118.535782 91.915749,119.584137 
	C92.892540,121.236137 93.261002,123.247818 93.936241,125.545509 
z"/>
<path fill="#CD8E84" opacity="1.000000" stroke="none" 
	d="
M91.947815,669.979797 
	C96.099510,673.140991 93.408272,677.521851 93.842102,681.313965 
	C94.128380,683.816284 93.494637,686.423767 93.212311,689.682739 
	C88.464630,690.737488 87.148643,686.757874 85.151871,683.135254 
	C85.834625,680.838379 86.805885,678.753967 88.139420,676.125366 
	C89.650391,673.713989 90.799103,671.846924 91.947815,669.979797 
z"/>
<path fill="#ECECEC" opacity="1.000000" stroke="none" 
	d="
M532.312378,88.533195 
	C533.748718,87.913933 534.851990,87.114983 535.832092,86.405205 
	C538.143311,86.711861 540.672485,87.047432 543.195190,87.382149 
	C542.751587,95.287811 540.862793,96.300598 534.464172,92.672897 
	C532.795593,91.726868 530.375977,92.105568 527.247009,91.759094 
	C526.953430,91.301918 525.971802,89.773109 524.990112,88.244301 
	C525.165161,87.802826 525.340149,87.361343 525.515198,86.919868 
	C527.669861,87.397751 529.824585,87.875633 532.312378,88.533195 
z"/>
<path fill="#D0D0D0" opacity="1.000000" stroke="none" 
	d="
M954.311462,283.007080 
	C953.310486,280.835785 952.315613,279.020966 950.834229,276.318695 
	C952.065186,275.377808 954.202209,273.744354 956.240967,272.186035 
	C957.172424,273.544434 958.149597,275.906647 959.895630,277.316956 
	C963.322754,280.085052 962.131226,283.715576 960.518372,285.694122 
	C957.625305,289.243042 956.096802,285.107391 954.311462,283.007080 
M954.130676,275.988770 
	C954.237610,276.421112 954.344543,276.853455 954.451477,277.285797 
	C954.582581,277.190887 954.835754,277.077789 954.824768,277.004089 
	C954.759277,276.564697 954.632690,276.134430 954.130676,275.988770 
z"/>
<path fill="#ECECEC" opacity="1.000000" stroke="none" 
	d="
M1076.350342,87.308289 
	C1078.526367,87.619453 1080.347168,87.995064 1082.136353,87.879570 
	C1084.526611,87.725258 1086.892090,87.189842 1090.359497,86.647392 
	C1088.838745,90.249886 1087.783203,92.750389 1086.914429,94.808289 
	C1082.751709,93.810143 1078.801025,93.053734 1074.989136,91.855537 
	C1073.449219,91.371460 1072.212646,89.921829 1070.837891,88.911591 
	C1070.932129,88.473198 1071.026245,88.034813 1071.120361,87.596428 
	C1072.740479,87.448967 1074.360718,87.301506 1076.350342,87.308289 
z"/>
<path fill="#B2B2B2" opacity="1.000000" stroke="none" 
	d="
M1066.047607,399.199402 
	C1065.232056,397.571564 1064.680542,396.215637 1064.208618,395.055695 
	C1066.122803,393.435608 1067.874634,392.001465 1069.571289,390.504700 
	C1071.728882,388.601196 1073.917114,388.759064 1075.599243,390.873199 
	C1077.193115,392.876373 1079.842896,395.194977 1075.741089,397.856323 
	C1074.739502,396.746490 1073.799561,395.705017 1072.520508,394.287689 
	C1071.537964,397.626770 1071.120728,401.555481 1066.047607,399.199402 
z"/>
<path fill="#B2B2B2" opacity="1.000000" stroke="none" 
	d="
M986.558044,320.905212 
	C987.085083,319.709595 987.466431,318.894775 987.943604,317.875153 
	C992.548706,324.435608 993.187439,332.042816 988.669800,336.671814 
	C987.836060,330.989716 987.124207,326.137848 986.558044,320.905212 
z"/>
<path fill="#D9D9D9" opacity="1.000000" stroke="none" 
	d="
M1013.447021,167.160889 
	C1013.642578,169.770370 1013.976257,172.042770 1014.309875,174.315170 
	C1013.780579,174.392975 1013.251221,174.470779 1012.721863,174.548599 
	C1011.810547,170.132187 1010.719177,165.742767 1010.052124,161.289749 
	C1009.616821,158.384033 1011.111877,157.219223 1013.913269,158.633224 
	C1015.599854,159.484512 1017.187378,160.532059 1018.983948,161.588104 
	C1016.977600,163.533783 1015.281372,165.178787 1013.447021,167.160889 
z"/>
<path fill="#ECECEC" opacity="1.000000" stroke="none" 
	d="
M303.550415,222.567719 
	C304.506531,221.993988 305.714630,221.277802 305.946747,221.515335 
	C307.980865,223.596893 309.840729,225.848679 312.111938,228.464157 
	C308.285400,230.486328 304.716522,232.372314 301.589417,234.024872 
	C302.218384,230.038666 302.784119,226.453079 303.550415,222.567719 
z"/>
<path fill="#D0D0D0" opacity="1.000000" stroke="none" 
	d="
M75.583878,479.400238 
	C77.870743,475.641541 79.947952,472.185150 82.025162,468.728729 
	C83.666306,472.190063 79.586136,481.843079 77.301254,483.014526 
	C76.620453,483.363556 75.600334,483.050781 74.735672,483.041229 
	C74.948532,481.928314 75.161385,480.815430 75.583878,479.400238 
z"/>
<path fill="#D9D9D9" opacity="1.000000" stroke="none" 
	d="
M470.941406,160.164154 
	C471.524414,161.434204 472.327271,163.230972 471.866882,163.654434 
	C470.062653,165.313980 467.859863,166.540161 465.516571,168.122147 
	C465.206390,164.856567 464.860474,161.214920 464.399902,156.366165 
	C467.545715,158.246094 469.063293,159.153000 470.941406,160.164154 
z"/>
<path fill="#E6E7E6" opacity="1.000000" stroke="none" 
	d="
M975.033325,77.652832 
	C973.685120,73.650810 972.419250,69.999886 971.153442,66.348969 
	C971.865417,66.071037 972.577393,65.793106 973.289429,65.515182 
	C974.970398,69.342262 976.696960,73.150719 978.277405,77.018860 
	C978.486389,77.530243 977.950623,78.345924 977.759766,79.020676 
	C976.878418,78.681770 975.997070,78.342857 975.033325,77.652832 
z"/>
<path fill="#E0E0DF" opacity="1.000000" stroke="none" 
	d="
M92.081879,669.682007 
	C90.799103,671.846924 89.650391,673.713989 88.248428,675.795288 
	C87.769882,672.328308 87.431351,668.645813 87.471306,664.967468 
	C87.475983,664.537109 89.625824,663.698853 90.675583,663.839233 
	C91.613708,663.964722 92.405869,665.181702 93.613358,665.954956 
	C93.381500,667.123352 92.798729,668.253784 92.081879,669.682007 
z"/>
<path fill="#B2B2B2" opacity="1.000000" stroke="none" 
	d="
M99.012878,301.455780 
	C102.940788,303.995758 102.049408,307.819672 96.632126,311.710968 
	C96.344276,307.898438 94.240051,304.163391 99.012878,301.455780 
z"/>
<path fill="#E6E7E6" opacity="1.000000" stroke="none" 
	d="
M427.704834,75.108765 
	C426.848389,72.170380 426.229492,69.542549 425.610565,66.914711 
	C426.220032,66.693398 426.829498,66.472076 427.438965,66.250763 
	C429.122650,70.039185 430.842804,73.812393 432.438232,77.637627 
	C432.613556,78.058029 432.175690,79.187233 431.843201,79.270195 
	C431.190094,79.433136 430.083710,79.342606 429.749603,78.907738 
	C428.964264,77.885490 428.522919,76.598923 427.704834,75.108765 
z"/>
<path fill="#D0D0D0" opacity="1.000000" stroke="none" 
	d="
M1135.389404,433.570404 
	C1134.302856,437.651337 1130.829224,438.633087 1126.299194,436.264740 
	C1126.715942,435.439819 1127.155396,434.621002 1127.546753,433.779816 
	C1127.887573,433.047424 1128.173828,432.289642 1128.662231,431.114288 
	C1130.872314,431.860687 1133.003906,432.580597 1135.389404,433.570404 
z"/>
<path fill="#E0E0DF" opacity="1.000000" stroke="none" 
	d="
M910.011963,212.003784 
	C909.590515,214.200165 909.167480,215.985641 908.744385,217.771103 
	C908.002075,217.750244 907.259705,217.729370 906.517395,217.708496 
	C906.175964,214.386017 905.834595,211.063522 905.493164,207.741043 
	C906.229309,207.496277 906.965454,207.251511 907.701599,207.006744 
	C908.471191,208.535446 909.240845,210.064163 910.011963,212.003784 
z"/>
<path fill="#E6E7E6" opacity="1.000000" stroke="none" 
	d="
M1130.897339,134.886169 
	C1129.206787,134.917114 1127.878052,134.857330 1126.549316,134.797546 
	C1126.773804,132.662384 1126.998291,130.527222 1127.283569,127.813080 
	C1129.876099,129.428528 1131.749023,130.595612 1134.385498,132.238434 
	C1133.200317,133.207764 1132.229736,134.001602 1130.897339,134.886169 
z"/>
<path fill="#D9D9D9" opacity="1.000000" stroke="none" 
	d="
M1031.856201,411.601257 
	C1030.585449,407.868866 1030.355713,404.656982 1033.671631,401.416656 
	C1034.514648,404.358124 1035.437134,406.534943 1035.703491,408.789276 
	C1035.989014,411.206635 1035.055542,412.982239 1031.856201,411.601257 
z"/>
<path fill="#C7C6C5" opacity="1.000000" stroke="none" 
	d="
M210.319336,301.577332 
	C211.419434,298.879456 212.360977,296.552002 213.302521,294.224579 
	C213.768661,294.327362 214.234802,294.430115 214.700943,294.532898 
	C213.944031,298.730530 213.187119,302.928162 212.396561,307.312378 
	C210.033554,307.121735 210.033554,307.121735 210.319336,301.577332 
z"/>
<path fill="#B2B2B2" opacity="1.000000" stroke="none" 
	d="
M702.772705,173.169846 
	C702.786377,174.480438 702.714661,175.424179 702.549988,177.591705 
	C699.773376,175.255157 697.701904,173.511978 695.058044,171.287125 
	C698.919617,169.446167 701.254272,169.373322 702.772705,173.169846 
z"/>
<path fill="#D9D9D9" opacity="1.000000" stroke="none" 
	d="
M365.830933,214.056458 
	C364.748383,215.198334 363.329651,216.128952 361.612305,217.168869 
	C359.144775,213.909088 359.797791,210.909958 362.640625,207.552322 
	C363.732574,209.959793 364.613678,211.902496 365.830933,214.056458 
z"/>
<path fill="#D0D0D0" opacity="1.000000" stroke="none" 
	d="
M671.526123,96.678040 
	C670.393860,97.638573 669.385254,98.238937 668.376648,98.839310 
	C667.938477,97.740341 667.000427,96.556328 667.169800,95.560760 
	C667.487610,93.693359 668.445984,91.934959 669.137939,90.131218 
	C669.579590,90.220840 670.021179,90.310463 670.462830,90.400085 
	C670.858521,92.372681 671.254211,94.345268 671.526123,96.678040 
z"/>
<path fill="#C7C6C5" opacity="1.000000" stroke="none" 
	d="
M200.734177,102.244507 
	C201.084106,103.500412 201.175568,104.488121 201.267029,105.475830 
	C199.904144,105.040878 197.716171,104.965340 197.339569,104.100769 
	C196.371826,101.879074 196.207413,99.307434 195.721909,96.875664 
	C196.211716,96.725990 196.701508,96.576324 197.191299,96.426651 
	C198.286102,98.276543 199.380905,100.126427 200.734177,102.244507 
z"/>
<path fill="#C7C6C5" opacity="1.000000" stroke="none" 
	d="
M744.301147,104.984886 
	C740.815125,102.857491 740.930420,100.278366 742.962036,96.619949 
	C744.747620,99.358780 746.239624,101.647301 748.061218,104.441338 
	C746.679077,104.688728 745.675598,104.868332 744.301147,104.984886 
z"/>
<path fill="#B2B2B2" opacity="1.000000" stroke="none" 
	d="
M156.970001,173.891144 
	C156.153503,174.780823 155.014359,175.922668 154.510056,175.689789 
	C152.591324,174.803726 150.877625,173.473663 149.566559,171.739456 
	C153.525436,169.361084 155.918564,169.640976 156.970001,173.891144 
z"/>
<path fill="#E6E7E6" opacity="1.000000" stroke="none" 
	d="
M536.274170,130.397522 
	C536.330017,132.257584 536.145081,133.927322 535.814392,136.912659 
	C533.222290,134.636734 531.099792,132.773071 528.977295,130.909409 
	C529.249329,130.541718 529.521301,130.174026 529.793335,129.806335 
	C531.873352,129.939957 533.953369,130.073578 536.274170,130.397522 
z"/>
<path fill="#E6E7E6" opacity="1.000000" stroke="none" 
	d="
M584.213013,129.796478 
	C585.612244,130.862915 586.724854,131.723221 588.615173,133.184952 
	C585.832886,134.294983 583.833008,135.092880 581.833069,135.890778 
	C581.368958,135.515533 580.904846,135.140289 580.440796,134.765045 
	C581.602600,133.040146 582.764404,131.315247 584.213013,129.796478 
z"/>
<path fill="#E6E7E6" opacity="1.000000" stroke="none" 
	d="
M1095.481934,484.315186 
	C1096.036987,481.363434 1096.830322,478.698639 1097.726074,475.689697 
	C1101.104004,479.338928 1100.035156,482.857971 1095.481934,484.315186 
z"/>
<path fill="#D0D0D0" opacity="1.000000" stroke="none" 
	d="
M125.525108,97.588333 
	C123.154839,99.691750 121.811813,98.954628 122.015785,96.373268 
	C122.184937,94.232567 123.160606,92.155609 123.778976,90.050407 
	C124.248138,90.168991 124.717300,90.287575 125.186462,90.406158 
	C125.363350,92.691353 125.540245,94.976555 125.525108,97.588333 
z"/>
<path fill="#E0E0DF" opacity="1.000000" stroke="none" 
	d="
M977.991943,219.319992 
	C979.317322,220.726440 980.270813,222.135040 981.224304,223.543640 
	C981.018433,223.991440 980.812561,224.439255 980.606689,224.887054 
	C978.875000,224.660370 977.143311,224.433685 975.411621,224.207001 
	C976.147766,222.578720 976.883911,220.950424 977.991943,219.319992 
z"/>
<path fill="#E0E0DF" opacity="1.000000" stroke="none" 
	d="
M785.673218,139.338440 
	C784.287598,140.181824 783.068542,140.663223 780.779358,141.567169 
	C782.311951,137.948837 783.316101,135.578247 784.320251,133.207642 
	C784.826721,133.284927 785.333252,133.362228 785.839722,133.439529 
	C785.839722,135.285156 785.839722,137.130798 785.673218,139.338440 
z"/>
<path fill="#D9D9D9" opacity="1.000000" stroke="none" 
	d="
M978.491821,237.092590 
	C973.917786,237.597244 971.458008,235.572067 971.485962,230.549164 
	C974.189331,232.934921 976.351501,234.843033 978.491821,237.092590 
z"/>
<path fill="#D9D9D9" opacity="1.000000" stroke="none" 
	d="
M178.196564,413.295105 
	C179.412521,413.834900 181.191879,414.514465 181.558716,415.650238 
	C182.067993,417.227112 181.517227,419.146301 181.420273,420.918915 
	C180.991379,420.868378 180.562469,420.817841 180.133575,420.767273 
	C179.465683,418.390991 178.797775,416.014679 178.196564,413.295105 
z"/>
<path fill="#E0E0DF" opacity="1.000000" stroke="none" 
	d="
M1061.895996,481.742310 
	C1061.131714,482.559448 1060.630615,483.124237 1060.129395,483.688995 
	C1059.621094,483.407227 1059.112793,483.125427 1058.604370,482.843628 
	C1059.606445,480.785126 1060.608521,478.726624 1061.610474,476.668121 
	C1062.398804,477.020721 1063.187256,477.373322 1063.975586,477.725922 
	C1063.369995,478.980591 1062.764526,480.235260 1061.895996,481.742310 
z"/>
<path fill="#E6E7E6" opacity="1.000000" stroke="none" 
	d="
M1082.462769,134.467224 
	C1081.144775,134.603760 1079.660767,134.489700 1078.176636,134.375641 
	C1078.082031,133.860733 1077.987549,133.345840 1077.892944,132.830933 
	C1079.099121,131.787094 1080.305176,130.743271 1081.973267,129.299698 
	C1082.120239,131.535522 1082.208496,132.876068 1082.462769,134.467224 
z"/>
<path fill="#E6E7E6" opacity="1.000000" stroke="none" 
	d="
M1076.945435,131.555206 
	C1076.353638,131.615631 1075.808350,131.388336 1075.262939,131.161041 
	C1075.604370,130.675583 1075.945801,130.190155 1076.287354,129.704742 
	C1076.522095,130.225662 1076.756958,130.746567 1076.945435,131.555206 
z"/>
<path fill="#D9D9D9" opacity="1.000000" stroke="none" 
	d="
M467.481323,171.415466 
	C467.541260,170.925217 467.780853,170.627762 468.020447,170.330292 
	C468.207184,170.524002 468.393951,170.717682 468.580719,170.911377 
	C468.274139,171.143661 467.967560,171.375961 467.481323,171.415466 
z"/>
<path fill="#A7301E" opacity="1.000000" stroke="none" 
	d="
M199.447083,635.560730 
	C193.380447,632.025574 187.615677,628.699768 181.862274,625.354492 
	C178.482269,623.389282 175.194016,622.625793 172.868164,626.719299 
	C170.472794,630.935120 173.695053,632.765869 176.629822,634.469666 
	C197.345245,646.496460 218.094681,658.464722 238.797699,670.512695 
	C240.500351,671.503540 241.939377,672.947449 243.500885,674.180847 
	C243.095856,674.723572 242.690826,675.266235 242.285782,675.808899 
	C235.455444,671.914673 228.607742,668.050598 221.798264,664.120239 
	C206.092026,655.054810 190.449783,645.876526 174.647751,636.981873 
	C172.805634,635.944946 169.600479,635.450867 167.931412,636.361816 
	C164.006638,638.503845 164.434616,642.949890 168.653503,645.455566 
	C180.383453,652.422302 192.217178,659.214783 204.026352,666.047668 
	C213.530899,671.546997 223.066986,676.991882 232.569534,682.494751 
	C234.074585,683.366333 235.476562,684.415894 236.926193,685.383118 
	C236.759384,685.848511 236.592590,686.313904 236.425781,686.779297 
	C235.100754,686.496643 233.595825,686.527344 232.477341,685.885010 
	C211.122421,673.622070 189.811050,661.283325 168.496109,648.950806 
	C165.261032,647.079102 161.435593,644.867920 162.435242,640.756714 
	C163.233353,637.474243 166.173264,634.712524 168.162491,631.719666 
	C168.644226,631.953918 169.125961,632.188171 169.607697,632.422363 
	C169.470428,631.324280 169.167648,630.217773 169.222610,629.129333 
	C169.591766,621.820068 175.687775,618.519409 182.387451,622.273560 
	C194.290161,628.943420 206.054321,635.860657 217.868988,642.687378 
	C227.521484,648.264648 237.181366,653.829712 246.787872,659.485291 
	C248.088028,660.250732 249.095947,661.512634 250.239182,662.544617 
	C249.861435,663.062378 249.483688,663.580078 249.105957,664.097839 
	C232.655197,654.652527 216.204453,645.207214 199.447083,635.560730 
z"/>
<path fill="#A7301E" opacity="1.000000" stroke="none" 
	d="
M142.937958,786.061890 
	C151.844666,791.513123 160.430008,796.791870 168.979477,802.128052 
	C169.097549,802.201721 168.764221,802.998596 168.458374,804.144043 
	C162.516663,800.774536 156.789078,797.576050 151.108673,794.295837 
	C134.384735,784.638306 117.723663,774.870117 100.905266,765.380493 
	C99.022621,764.318176 95.861237,763.844604 94.036964,764.694824 
	C89.835167,766.653015 90.393990,771.312073 94.973091,774.002808 
	C105.594704,780.244019 116.285095,786.368164 126.951714,792.532776 
	C137.907272,798.864319 148.873093,805.178162 159.817215,811.529358 
	C160.864502,812.137085 161.789642,812.955261 162.771469,813.675781 
	C162.610367,814.104431 162.449280,814.533081 162.288177,814.961792 
	C160.928619,814.649963 159.392563,814.645447 158.235580,813.980896 
	C136.438293,801.461243 114.609421,788.992981 92.965767,776.211487 
	C85.450790,771.773621 86.708893,764.944824 95.658226,760.361816 
	C94.350586,755.823608 96.077637,752.147278 99.895363,749.776001 
	C103.513000,747.529114 106.815971,749.537842 110.091888,751.442078 
	C130.386322,763.238708 150.745178,774.924377 171.057419,786.690430 
	C172.907593,787.762207 174.579956,789.140930 176.334885,790.377075 
	C176.052261,790.886108 175.769638,791.395081 175.487000,791.904114 
	C174.174362,791.386047 172.772629,791.022888 171.562317,790.326843 
	C150.493042,778.209229 129.481552,765.990295 108.342148,753.996704 
	C106.277817,752.825562 103.030045,751.943054 101.074333,752.742798 
	C96.669434,754.544006 97.211975,759.586182 101.977386,762.390137 
	C113.167992,768.974731 124.446404,775.410156 135.689941,781.904724 
	C137.996399,783.237000 140.305695,784.564392 142.937958,786.061890 
z"/>
<path fill="#A7301E" opacity="1.000000" stroke="none" 
	d="
M137.758255,734.266724 
	C153.174347,743.213196 168.345947,751.857300 183.375885,760.740967 
	C189.440674,764.325745 190.227783,769.386475 186.142685,774.463379 
	C183.046295,778.311462 179.374802,779.083801 175.125061,776.635681 
	C154.665817,764.849548 134.177063,753.112976 113.812569,741.164917 
	C108.288116,737.923706 107.565933,733.813049 110.763275,728.540833 
	C113.662651,723.760010 117.724884,722.832092 123.181107,725.860413 
	C127.978882,728.523132 132.701202,731.321960 137.758255,734.266724 
M182.734421,763.789917 
	C162.300186,751.946045 141.901566,740.039429 121.365273,728.375244 
	C119.692184,727.424988 116.566360,727.322266 115.042633,728.288147 
	C113.440079,729.303955 111.916161,732.274902 112.249466,734.032715 
	C112.633453,736.057800 114.751884,738.263489 116.695915,739.404541 
	C136.347580,750.939087 156.133636,762.244446 175.837997,773.689758 
	C178.840118,775.433533 181.431763,775.698486 183.783508,772.813782 
	C186.226807,769.816833 186.726868,766.888672 182.734421,763.789917 
z"/>
<path fill="#A7301E" opacity="1.000000" stroke="none" 
	d="
M175.571152,743.390381 
	C159.687393,734.215576 144.088120,725.280579 128.557022,716.228577 
	C123.174629,713.091492 121.996628,709.039368 124.650795,704.101501 
	C127.399353,698.988037 131.624710,697.416870 136.764526,700.350891 
	C159.312241,713.221741 181.752380,726.281067 204.219833,739.292236 
	C204.457611,739.429871 204.537979,739.839355 205.478043,741.566223 
	C203.180847,741.098328 201.647064,741.151062 200.517517,740.501160 
	C183.348969,730.622803 166.237656,720.645020 149.102158,710.709106 
	C144.926056,708.287537 140.723175,705.911438 136.510971,703.553101 
	C132.038879,701.049377 129.461349,701.562439 127.245461,705.370667 
	C124.886177,709.425171 126.860748,711.849060 130.342880,713.856506 
	C151.249634,725.909241 172.139542,737.991333 193.005020,750.115417 
	C194.598068,751.041138 195.958786,752.366699 197.427521,753.506348 
	C197.007904,754.109558 196.588287,754.712708 196.168671,755.315857 
	C189.406586,751.405334 182.644501,747.494812 175.571152,743.390381 
z"/>
<path fill="#A7301E" opacity="1.000000" stroke="none" 
	d="
M178.453613,686.551025 
	C167.724319,680.012939 156.708038,674.607727 146.641357,667.712524 
	C146.958755,667.118591 147.276138,666.524658 147.593536,665.930664 
	C149.110291,666.567322 150.713043,667.053528 152.130310,667.864075 
	C164.552689,674.968567 176.972168,682.079224 189.322647,689.307434 
	C193.032761,691.478882 196.162521,691.832031 198.677887,687.729309 
	C201.318604,683.422119 199.007294,680.943787 195.440216,678.887390 
	C183.618805,672.072388 171.795151,665.260986 160.006577,658.389526 
	C158.056000,657.252502 156.277267,655.820740 154.419113,654.525208 
	C154.709900,654.018494 155.000702,653.511841 155.291489,653.005127 
	C156.389893,653.379822 157.583649,653.588074 158.572205,654.154480 
	C170.988724,661.269043 183.384628,668.419800 195.764938,675.597351 
	C199.947784,678.022339 203.560410,680.751099 202.453522,686.582703 
	C202.294907,687.418335 203.913239,688.936707 205.028519,689.610657 
	C210.865570,693.137939 216.809586,696.487976 222.706879,699.915955 
	C224.090790,700.720398 225.437744,701.588379 226.801712,702.427063 
	C226.656158,702.910645 226.510620,703.394165 226.365082,703.877747 
	C224.917801,703.573853 223.290695,703.595032 222.053787,702.910889 
	C216.085236,699.609497 210.187515,696.175293 204.338806,692.664734 
	C202.179245,691.368469 200.612076,691.243713 198.079376,692.489868 
	C195.765945,693.628052 192.224518,693.577515 189.705734,692.687866 
	C185.840698,691.322693 182.388321,688.789185 178.453613,686.551025 
z"/>
<path fill="#A7301E" opacity="1.000000" stroke="none" 
	d="
M189.429947,712.570312 
	C174.026566,703.640564 158.890564,694.977295 143.865829,686.125305 
	C141.190445,684.549011 139.715714,684.923767 138.268143,687.488159 
	C137.652527,688.578796 136.554153,689.396912 135.675171,690.338867 
	C135.164261,689.969238 134.653351,689.599670 134.142456,689.230042 
	C137.110779,684.087402 140.079117,678.944702 143.047440,673.802063 
	C143.674911,674.083923 144.302383,674.365784 144.929855,674.647705 
	C144.126663,676.879211 143.323486,679.110718 142.331085,681.867981 
	C150.256836,686.446167 158.410065,691.151245 166.558914,695.864075 
	C174.754669,700.604004 183.013779,705.239319 191.119919,710.127991 
	C198.881699,714.809082 207.336456,718.503174 214.341324,724.312683 
	C213.961639,724.922791 213.581955,725.532837 213.202271,726.142883 
	C205.379929,721.686096 197.557602,717.229309 189.429947,712.570312 
z"/>
<path fill="#A7301E" opacity="1.000000" stroke="none" 
	d="
M244.520172,641.484497 
	C249.051193,644.226318 253.273712,646.771484 257.496216,649.316650 
	C252.024200,650.580627 188.142960,613.153320 187.175415,608.503052 
	C206.658432,619.701965 225.435043,630.494873 244.520172,641.484497 
z"/>
<path fill="#B4766D" opacity="1.000000" stroke="none" 
	d="
M308.007996,601.989502 
	C307.073792,603.652771 306.139618,605.316040 304.704102,607.871948 
	C304.287628,607.495361 302.118378,606.402405 302.178955,605.451599 
	C302.685028,597.510010 304.682892,590.048706 310.189606,584.104797 
	C310.825745,584.181763 311.461853,584.258728 312.097992,584.335693 
	C312.097992,586.479980 312.557007,588.753479 311.997681,590.740295 
	C310.988312,594.325806 309.369995,597.739868 308.002991,601.612793 
	C307.999969,602.000000 308.007996,601.989502 308.007996,601.989502 
z"/>
<path fill="#B4766D" opacity="1.000000" stroke="none" 
	d="
M409.103760,282.741486 
	C407.816956,280.650604 406.596954,278.937866 405.116669,276.859741 
	C406.517120,276.859741 407.804871,276.859741 409.357574,276.859741 
	C409.357574,275.043579 409.357574,273.357422 409.357574,270.611694 
	C411.879211,274.257935 414.469543,276.895233 415.590057,280.053894 
	C416.226532,281.848114 414.457184,284.495850 413.771301,286.759186 
	C412.237732,285.546021 410.704163,284.332855 409.103760,282.741486 
z"/>
<path fill="#B4766D" opacity="1.000000" stroke="none" 
	d="
M446.651794,329.390625 
	C446.166016,331.771271 445.531097,333.786072 444.896149,335.800903 
	C444.462646,335.713409 444.029114,335.625916 443.595612,335.538422 
	C442.282440,329.839325 436.785339,324.474121 442.834229,317.487457 
	C444.180725,321.722290 445.341644,325.373535 446.651794,329.390625 
z"/>
<path fill="#B4766D" opacity="1.000000" stroke="none" 
	d="
M211.880493,843.883972 
	C212.383057,842.400513 212.805573,841.298645 213.228073,840.196838 
	C213.822617,840.439148 214.417145,840.681519 215.011688,840.923889 
	C214.240021,842.852112 213.096725,844.724487 212.796234,846.723511 
	C212.464340,848.931519 212.904907,851.255676 213.004761,853.436584 
	C209.287903,852.111145 209.018539,850.411133 211.880493,843.883972 
z"/>
<path fill="#B4766D" opacity="1.000000" stroke="none" 
	d="
M154.658951,716.130127 
	C155.819519,717.835510 156.600082,719.445923 157.380646,721.056396 
	C156.842590,721.491455 156.304535,721.926453 155.766479,722.361511 
	C153.838638,720.783936 151.910782,719.206360 149.982941,717.628784 
	C150.086655,717.222778 150.190369,716.816833 150.294067,716.410889 
	C151.622360,716.285645 152.950653,716.160400 154.658951,716.130127 
z"/>
<path fill="#B4766D" opacity="1.000000" stroke="none" 
	d="
M125.167458,640.028198 
	C124.945633,641.945801 124.657021,643.500061 124.368416,645.054382 
	C123.787018,644.889160 123.205620,644.723877 122.624222,644.558655 
	C121.581734,641.362366 121.136665,638.323853 125.615967,635.741394 
	C125.376892,637.561768 125.238785,638.613342 125.167458,640.028198 
z"/>
<path fill="#B4766D" opacity="1.000000" stroke="none" 
	d="
M307.994568,602.004211 
	C308.114288,602.144043 308.239410,602.279663 308.364532,602.415222 
	C308.280701,602.365540 308.196869,602.315857 308.060486,602.127869 
	C308.007996,601.989502 307.999969,602.000000 307.994568,602.004211 
z"/>
<path fill="#F9F9F9" opacity="1.000000" stroke="none" 
	d="
M954.328674,275.844910 
	C954.632690,276.134430 954.759277,276.564697 954.824768,277.004089 
	C954.835754,277.077789 954.582581,277.190887 954.451538,277.285828 
	C954.344543,276.853455 954.237610,276.421112 954.328674,275.844910 
z"/>
<path fill="#CD8E84" opacity="1.000000" stroke="none" 
	d="
M183.051727,763.973816 
	C186.726868,766.888672 186.226807,769.816833 183.783508,772.813782 
	C181.431763,775.698486 178.840118,775.433533 175.837997,773.689758 
	C156.133636,762.244446 136.347580,750.939087 116.695915,739.404541 
	C114.751884,738.263489 112.633453,736.057800 112.249466,734.032715 
	C111.916161,732.274902 113.440079,729.303955 115.042633,728.288147 
	C116.566360,727.322266 119.692184,727.424988 121.365273,728.375244 
	C141.901566,740.039429 162.300186,751.946045 183.051727,763.973816 
z"/>
</svg>